# 3ds Max Wavefront OBJ Exporter v0.97b - (c)2007 guruware
# File Created: 12.12.2015 16:43:50

mtllib Stairs.mtl

#
# object Stairs
#

v  0.5000 0.5000 -0.1111
v  -0.5000 0.5000 -0.1111
v  -0.5000 0.5000 0.1111
v  0.5000 0.5000 0.1111
v  0.5000 1.0000 -1.0000
v  -0.5000 1.0000 -1.0000
v  -0.5000 1.0000 -0.7778
v  0.5000 1.0000 -0.7778
v  0.5000 0.8750 -0.7778
v  -0.5000 0.8750 -0.7778
v  -0.5000 0.8750 -0.5556
v  0.5000 0.8750 -0.5556
v  0.5000 0.7500 -0.5556
v  -0.5000 0.7500 -0.5556
v  -0.5000 0.7500 -0.3333
v  0.5000 0.7500 -0.3333
v  0.5000 0.6250 -0.3333
v  -0.5000 0.6250 -0.3333
v  -0.5000 0.6250 -0.1111
v  0.5000 0.6250 -0.1111
v  -0.5000 0.1250 0.7778
v  0.5000 0.1250 0.7778
v  0.5000 0.1250 0.5556
v  -0.5000 0.1250 0.5556
v  -0.5000 0.2500 0.5556
v  0.5000 0.2500 0.5556
v  0.5000 0.2500 0.3333
v  -0.5000 0.2500 0.3333
v  -0.5000 0.3750 0.3333
v  0.5000 0.3750 0.3333
v  0.5000 0.3750 0.1111
v  -0.5000 0.3750 0.1111
v  0.5000 0.0000 0.7778
v  0.5000 0.0000 0.5556
v  -0.5000 0.0000 0.5556
v  -0.5000 0.0000 0.7778
v  0.5000 0.0000 0.3333
v  -0.5000 0.0000 0.3333
v  0.5000 0.0000 0.1111
v  -0.5000 0.0000 0.1111
v  0.5000 0.0000 -0.1111
v  -0.5000 0.0000 -0.1111
v  0.5000 0.0000 -0.3333
v  -0.5000 0.0000 -0.3333
v  0.5000 0.0000 -0.5556
v  -0.5000 0.0000 -0.5556
v  0.5000 0.0000 -0.7778
v  -0.5000 0.0000 -0.7778
v  0.5000 0.0000 -1.0000
v  -0.5000 0.0000 -1.0000
# 50 vertices

vn 0.0000 1.0000 -0.0000
vn 1.0000 0.0000 -0.0000
vn 0.0000 0.0000 -1.0000
vn -1.0000 0.0000 -0.0000
vn 0.0000 0.0000 1.0000
vn -0.0000 0.0000 1.0000
# 6 vertex normals

vt 0.9995 0.5000 0.5000
vt 0.0005 0.5000 0.5000
vt 0.0005 0.3751 0.5000
vt 0.9995 0.3751 0.5000
vt 0.9995 0.9995 0.9995
vt 0.0005 0.9995 0.9995
vt 0.0005 0.8746 0.9995
vt 0.9995 0.8746 0.9995
vt 0.9995 0.8746 0.8746
vt 0.0005 0.8746 0.8746
vt 0.0005 0.7498 0.8746
vt 0.9995 0.7498 0.8746
vt 0.9995 0.7498 0.7498
vt 0.0005 0.7498 0.7498
vt 0.0005 0.6249 0.7498
vt 0.9995 0.6249 0.7498
vt 0.9995 0.6249 0.6249
vt 0.0005 0.6249 0.6249
vt 0.0005 0.5000 0.6249
vt 0.9995 0.5000 0.6249
vt 0.0005 0.0005 0.1254
vt 0.9995 0.0005 0.1254
vt 0.9995 0.1254 0.1254
vt 0.0005 0.1254 0.1254
vt 0.0005 0.1254 0.2502
vt 0.9995 0.1254 0.2502
vt 0.9995 0.2502 0.2502
vt 0.0005 0.2502 0.2502
vt 0.0005 0.2502 0.3751
vt 0.9995 0.2502 0.3751
vt 0.9995 0.3751 0.3751
vt 0.0005 0.3751 0.3751
vt 0.0005 0.0005 0.9995
vt 0.1254 0.0005 0.9995
vt 0.1254 0.1254 0.9995
vt 0.0005 0.1254 0.9995
vt 0.8746 0.0005 0.0005
vt 0.9995 0.0005 0.0005
vt 0.9995 0.1254 0.0005
vt 0.8746 0.1254 0.0005
vt 0.0005 0.0005 0.0005
vt 0.0005 0.1254 0.0005
vt 0.2502 0.0005 0.9995
vt 0.2502 0.2502 0.9995
vt 0.1254 0.2502 0.9995
vt 0.0005 0.0005 0.2502
vt 0.9995 0.0005 0.2502
vt 0.7498 0.0005 0.0005
vt 0.8746 0.2502 0.0005
vt 0.7498 0.2502 0.0005
vt 0.9995 0.2502 0.1254
vt 0.0005 0.2502 0.1254
vt 0.3751 0.0005 0.9995
vt 0.3751 0.3751 0.9995
vt 0.2502 0.3751 0.9995
vt 0.0005 0.0005 0.3751
vt 0.9995 0.0005 0.3751
vt 0.6249 0.0005 0.0005
vt 0.7498 0.3751 0.0005
vt 0.6249 0.3751 0.0005
vt 0.9995 0.3751 0.2502
vt 0.0005 0.3751 0.2502
vt 0.5000 0.0005 0.9995
vt 0.5000 0.5000 0.9995
vt 0.3751 0.5000 0.9995
vt 0.0005 0.0005 0.5000
vt 0.9995 0.0005 0.5000
vt 0.5000 0.0005 0.0005
vt 0.6249 0.5000 0.0005
vt 0.5000 0.5000 0.0005
vt 0.9995 0.5000 0.3751
vt 0.0005 0.5000 0.3751
vt 0.6249 0.0005 0.9995
vt 0.6249 0.6249 0.9995
vt 0.5000 0.6249 0.9995
vt 0.0005 0.0005 0.6249
vt 0.9995 0.0005 0.6249
vt 0.3751 0.0005 0.0005
vt 0.5000 0.6249 0.0005
vt 0.3751 0.6249 0.0005
vt 0.9995 0.6249 0.5000
vt 0.0005 0.6249 0.5000
vt 0.7498 0.0005 0.9995
vt 0.7498 0.7498 0.9995
vt 0.6249 0.7498 0.9995
vt 0.0005 0.0005 0.7498
vt 0.9995 0.0005 0.7498
vt 0.2502 0.0005 0.0005
vt 0.3751 0.7498 0.0005
vt 0.2502 0.7498 0.0005
vt 0.9995 0.7498 0.6249
vt 0.0005 0.7498 0.6249
vt 0.8746 0.0005 0.9995
vt 0.8746 0.8746 0.9995
vt 0.7498 0.8746 0.9995
vt 0.0005 0.0005 0.8746
vt 0.9995 0.0005 0.8746
vt 0.1254 0.0005 0.0005
vt 0.2502 0.8746 0.0005
vt 0.1254 0.8746 0.0005
vt 0.9995 0.8746 0.7498
vt 0.0005 0.8746 0.7498
vt 0.9995 0.0005 0.9995
vt 0.1254 0.9995 0.0005
vt 0.0005 0.9995 0.0005
vt 0.9995 0.9995 0.8746
vt 0.0005 0.9995 0.8746
vt 0.8746 0.9995 0.9995
# 108 texture coords

g Stairs
usemtl 11___Default
f 1/1/1 2/2/1 3/3/1 
f 3/3/1 4/4/1 1/1/1 
f 5/5/1 6/6/1 7/7/1 
f 7/7/1 8/8/1 5/5/1 
f 9/9/1 10/10/1 11/11/1 
f 11/11/1 12/12/1 9/9/1 
f 13/13/1 14/14/1 15/15/1 
f 15/15/1 16/16/1 13/13/1 
f 17/17/1 18/18/1 19/19/1 
f 19/19/1 20/20/1 17/17/1 
f 21/21/1 22/22/1 23/23/1 
f 23/23/1 24/24/1 21/21/1 
f 25/25/1 26/26/1 27/27/1 
f 27/27/1 28/28/1 25/25/1 
f 29/29/1 30/30/1 31/31/1 
f 31/31/1 32/32/1 29/29/1 
usemtl Material__124
f 33/33/2 34/34/2 23/35/2 
f 23/35/2 22/36/2 33/33/2 
usemtl 11___Default
f 34/21/3 35/22/3 24/23/3 
f 24/23/3 23/24/3 34/21/3 
usemtl Material__124
f 35/37/4 36/38/4 21/39/4 
f 21/39/4 24/40/4 35/37/4 
usemtl 11___Default
f 36/41/5 33/38/5 22/39/5 
f 22/39/5 21/42/5 36/41/5 
usemtl Material__124
f 34/34/2 37/43/2 27/44/2 
f 27/44/2 26/45/2 34/34/2 
usemtl 11___Default
f 37/46/3 38/47/3 28/27/3 
f 28/27/3 27/28/3 37/46/3 
usemtl Material__124
f 38/48/4 35/37/4 25/49/4 
f 25/49/4 28/50/4 38/48/4 
usemtl 11___Default
f 35/21/6 34/22/6 26/51/6 
f 26/51/6 25/52/6 35/21/6 
usemtl Material__124
f 37/43/2 39/53/2 31/54/2 
f 31/54/2 30/55/2 37/43/2 
usemtl 11___Default
f 39/56/3 40/57/3 32/31/3 
f 32/31/3 31/32/3 39/56/3 
usemtl Material__124
f 40/58/4 38/48/4 29/59/4 
f 29/59/4 32/60/4 40/58/4 
usemtl 11___Default
f 38/46/6 37/47/6 30/61/6 
f 30/61/6 29/62/6 38/46/6 
usemtl Material__124
f 39/53/2 41/63/2 1/64/2 
f 1/64/2 4/65/2 39/53/2 
usemtl 11___Default
f 41/66/3 42/67/3 2/1/3 
f 2/1/3 1/2/3 41/66/3 
usemtl Material__124
f 42/68/4 40/58/4 3/69/4 
f 3/69/4 2/70/4 42/68/4 
usemtl 11___Default
f 40/56/6 39/57/6 4/71/6 
f 4/71/6 3/72/6 40/56/6 
usemtl Material__124
f 41/63/2 43/73/2 17/74/2 
f 17/74/2 20/75/2 41/63/2 
usemtl 11___Default
f 43/76/3 44/77/3 18/17/3 
f 18/17/3 17/18/3 43/76/3 
usemtl Material__124
f 44/78/4 42/68/4 19/79/4 
f 19/79/4 18/80/4 44/78/4 
usemtl 11___Default
f 42/66/6 41/67/6 20/81/6 
f 20/81/6 19/82/6 42/66/6 
usemtl Material__124
f 43/73/2 45/83/2 13/84/2 
f 13/84/2 16/85/2 43/73/2 
usemtl 11___Default
f 45/86/3 46/87/3 14/13/3 
f 14/13/3 13/14/3 45/86/3 
usemtl Material__124
f 46/88/4 44/78/4 15/89/4 
f 15/89/4 14/90/4 46/88/4 
usemtl 11___Default
f 44/76/6 43/77/6 16/91/6 
f 16/91/6 15/92/6 44/76/6 
usemtl Material__124
f 45/83/2 47/93/2 9/94/2 
f 9/94/2 12/95/2 45/83/2 
usemtl 11___Default
f 47/96/3 48/97/3 10/9/3 
f 10/9/3 9/10/3 47/96/3 
usemtl Material__124
f 48/98/4 46/88/4 11/99/4 
f 11/99/4 10/100/4 48/98/4 
usemtl 11___Default
f 46/86/6 45/87/6 12/101/6 
f 12/101/6 11/102/6 46/86/6 
f 49/33/3 50/103/3 6/5/3 
f 6/5/3 5/6/3 49/33/3 
usemtl Material__124
f 50/41/4 48/98/4 7/104/4 
f 7/104/4 6/105/4 50/41/4 
usemtl 11___Default
f 48/96/5 47/97/5 8/106/5 
f 8/106/5 7/107/5 48/96/5 
usemtl Material__124
f 47/93/2 49/103/2 5/5/2 
f 5/5/2 8/108/2 47/93/2 
# 80 faces

