# 3ds Max Wavefront OBJ Exporter v0.97b - (c)2007 guruware
# File Created: 12.12.2015 12:56:31

mtllib Teleport.mtl

#
# object Teleport
#

v  -0.5000 0.0000 0.5000
v  -0.5000 0.0000 -0.5000
v  0.5000 0.0000 -0.5000
v  0.5000 0.0000 0.5000
v  -0.5000 0.0402 0.5000
v  0.5000 0.0402 0.5000
v  0.5000 0.0402 -0.5000
v  -0.5000 0.0402 -0.5000
v  -0.3514 0.0000 0.3514
v  -0.3514 0.0000 -0.3514
v  0.3514 0.0000 -0.3514
v  0.3514 0.0000 0.3514
v  0.4702 0.9393 0.4702
v  -0.4702 0.9393 0.4702
v  0.4702 0.9393 -0.4702
v  -0.4702 0.9393 -0.4702
v  -0.3352 0.0115 0.3352
v  0.3352 0.0115 0.3352
v  0.3352 0.0115 -0.3352
v  -0.3352 0.0115 -0.3352
v  -0.4485 0.9221 0.4485
v  0.4485 0.9221 0.4485
v  0.4485 0.9221 -0.4485
v  -0.4485 0.9221 -0.4485
# 24 vertices

vn 0.0000 -1.0000 -0.0000
vn 0.0000 1.0000 -0.0000
vn 0.0000 0.0000 1.0000
vn 1.0000 0.0000 -0.0000
vn 0.0000 0.0000 -1.0000
vn -1.0000 0.0000 -0.0000
vn 0.0000 -0.0508 0.9987
vn 0.9987 -0.0508 -0.0000
vn 0.0000 -0.0508 -0.9987
vn -0.9987 -0.0508 -0.0000
vn 0.0000 0.0500 -0.9987
vn -0.9987 0.0500 -0.0000
vn 0.0000 0.0500 0.9987
vn 0.9987 0.0500 -0.0000
vn 0.0000 0.4524 -0.8918
vn -0.8918 0.4524 -0.0000
vn 0.0000 0.4524 0.8918
vn 0.8918 0.4524 -0.0000
# 18 vertex normals

vt 1.0000 0.0000 0.0000
vt 1.0000 1.0000 0.0000
vt 0.0000 1.0000 0.0000
vt 0.0000 0.0000 0.0000
# 4 texture coords

g Teleport
usemtl 07___Default
f 1/1/1 2/2/1 3/3/1 
f 3/3/1 4/4/1 1/1/1 
f 5/4/2 6/1/2 7/2/2 
f 7/2/2 8/3/2 5/4/2 
f 1/4/3 4/1/3 6/2/3 
f 6/2/3 5/3/3 1/4/3 
f 4/4/4 3/1/4 7/2/4 
f 7/2/4 6/3/4 4/4/4 
f 3/4/5 2/1/5 8/2/5 
f 8/2/5 7/3/5 3/4/5 
f 2/4/6 1/1/6 5/2/6 
f 5/2/6 8/3/6 2/4/6 
f 9/1/1 10/2/1 11/3/1 
f 11/3/1 12/4/1 9/1/1 
usemtl 08___Default
f 9/4/7 12/1/7 13/2/7 
f 13/2/7 14/3/7 9/4/7 
f 12/4/8 11/1/8 15/2/8 
f 15/2/8 13/3/8 12/4/8 
f 11/4/9 10/1/9 16/2/9 
f 16/2/9 15/3/9 11/4/9 
f 10/4/10 9/1/10 14/2/10 
f 14/2/10 16/3/10 10/4/10 
usemtl 07___Default
f 17/1/2 18/4/2 19/3/2 
f 19/3/2 20/2/2 17/1/2 
usemtl 08___Default
f 17/4/11 21/3/11 22/2/11 
f 22/2/11 18/1/11 17/4/11 
f 18/4/12 22/3/12 23/2/12 
f 23/2/12 19/1/12 18/4/12 
f 19/4/13 23/3/13 24/2/13 
f 24/2/13 20/1/13 19/4/13 
f 20/4/14 24/3/14 21/2/14 
f 21/2/14 17/1/14 20/4/14 
f 14/3/15 13/2/15 22/2/15 
f 22/2/15 21/3/15 14/3/15 
f 13/3/16 15/2/16 23/2/16 
f 23/2/16 22/3/16 13/3/16 
f 15/3/17 16/2/17 24/2/17 
f 24/2/17 23/3/17 15/3/17 
f 16/3/18 14/2/18 21/2/18 
f 21/2/18 24/3/18 16/3/18 
# 40 faces

