# 3ds Max Wavefront OBJ Exporter v0.97b - (c)2007 guruware
# File Created: 13.12.2015 19:03:07

mtllib Hearth.mtl

#
# object Hearth
#

v  0.0000 0.0000 -0.2408
v  0.0000 0.0000 0.6536
v  -0.1272 0.0000 0.5564
v  -0.1667 0.0000 -0.4160
v  0.0000 0.2000 0.6536
v  0.0000 0.2000 -0.2408
v  -0.1667 0.2000 -0.4160
v  -0.1272 0.2000 0.5564
v  -0.0000 0.1000 0.7188
v  -0.1398 0.1000 0.6120
v  -0.1342 0.0500 0.5873
v  -0.0000 0.0500 0.6898
v  0.5497 0.1000 -0.2690
v  0.5947 0.1000 -0.0201
v  0.5707 0.0500 -0.0194
v  0.5276 0.0500 -0.2582
v  -0.0000 0.1000 -0.2644
v  0.1832 0.1000 -0.4571
v  0.1759 0.0500 -0.4388
v  -0.0000 0.0500 -0.2539
v  -0.5947 0.1000 -0.0201
v  -0.5497 0.1000 -0.2690
v  -0.5276 0.0500 -0.2582
v  -0.5707 0.0500 -0.0194
v  0.5409 0.0000 -0.0185
v  0.4476 0.0000 0.2481
v  0.3699 0.0000 -0.4157
v  0.5000 0.0000 -0.2449
v  0.2500 0.0000 -0.4379
v  0.1908 0.0000 0.5000
v  0.1272 0.0000 0.5564
v  0.1667 0.0000 -0.4160
v  -0.5409 0.0000 -0.0185
v  -0.5000 0.0000 -0.2449
v  -0.3699 0.0000 -0.4157
v  -0.4476 0.0000 0.2481
v  -0.1908 0.0000 0.5000
v  -0.2500 0.0000 -0.4379
v  0.5409 0.2000 -0.0185
v  0.5000 0.2000 -0.2449
v  0.3699 0.2000 -0.4157
v  0.4476 0.2000 0.2481
v  0.1908 0.2000 0.5000
v  0.2500 0.2000 -0.4379
v  0.1667 0.2000 -0.4160
v  0.1272 0.2000 0.5564
v  -0.5409 0.2000 -0.0185
v  -0.4476 0.2000 0.2481
v  -0.3699 0.2000 -0.4157
v  -0.5000 0.2000 -0.2449
v  -0.2500 0.2000 -0.4379
v  -0.1908 0.2000 0.5000
v  0.4921 0.1000 0.2730
v  0.4723 0.0500 0.2619
v  0.2098 0.1000 0.5500
v  0.1398 0.1000 0.6120
v  0.1342 0.0500 0.5873
v  0.2013 0.0500 0.5277
v  -0.4921 0.1000 0.2730
v  -0.4723 0.1500 0.2619
v  -0.5707 0.1500 -0.0194
v  -0.2098 0.1000 0.5500
v  -0.1342 0.1500 0.5873
v  -0.2013 0.1500 0.5277
v  -0.4067 0.1000 -0.4568
v  -0.3903 0.0500 -0.4385
v  -0.2749 0.1000 -0.4812
v  -0.1832 0.1000 -0.4571
v  -0.1759 0.0500 -0.4388
v  -0.2638 0.0500 -0.4620
v  0.4067 0.1000 -0.4568
v  0.3903 0.1500 -0.4385
v  0.5276 0.1500 -0.2582
v  0.2749 0.1000 -0.4812
v  0.1759 0.1500 -0.4388
v  0.2638 0.1500 -0.4620
v  -0.0000 0.1500 0.6898
v  0.5707 0.1500 -0.0194
v  -0.0000 0.1500 -0.2539
v  -0.5276 0.1500 -0.2582
v  0.4723 0.1500 0.2619
v  0.1342 0.1500 0.5873
v  0.2013 0.1500 0.5277
v  -0.4723 0.0500 0.2619
v  -0.2013 0.0500 0.5277
v  -0.3903 0.1500 -0.4385
v  -0.1759 0.1500 -0.4388
v  -0.2638 0.1500 -0.4620
v  0.3903 0.0500 -0.4385
v  0.2638 0.0500 -0.4620
# 90 vertices

vn 0.0000 -1.0000 -0.0000
vn 0.0000 1.0000 -0.0000
vn -0.0000 -0.0000 1.0000
vn -0.6321 -0.0000 0.7749
vn -0.5668 -0.4527 0.6884
vn 0.0000 -0.5361 0.8441
vn 0.9841 -0.0000 -0.1778
vn 0.9841 0.0000 -0.1778
vn 0.8702 -0.4670 -0.1572
vn 0.8710 -0.4654 -0.1573
vn 0.0000 0.0000 -1.0000
vn -0.4667 0.0000 -0.8844
vn -0.4927 -0.2602 -0.8304
vn -0.0000 -0.2330 -0.9725
vn -0.9841 -0.0000 -0.1778
vn -0.9841 0.0000 -0.1778
vn -0.8710 -0.4654 -0.1573
vn -0.8702 -0.4670 -0.1572
vn 0.9439 -0.0000 0.3301
vn 0.8458 -0.0000 0.5335
vn 0.7536 -0.4503 0.4789
vn 0.8459 -0.4437 0.2959
vn 0.6804 0.0000 0.7329
vn 0.6321 0.0000 0.7749
vn 0.5668 -0.4527 0.6884
vn 0.6118 -0.4423 0.6558
vn -0.9439 0.0000 0.3301
vn -0.8458 0.0000 0.5335
vn -0.7536 0.4503 0.4789
vn -0.8459 0.4437 0.2959
vn -0.6804 -0.0000 0.7329
vn -0.5668 0.4527 0.6884
vn -0.6118 0.4423 0.6558
vn -0.7956 0.0000 -0.6059
vn -0.5373 -0.0000 -0.8434
vn -0.4591 -0.4714 -0.7530
vn -0.7011 -0.4727 -0.5339
vn 0.0090 0.0000 -1.0000
vn 0.4667 -0.0000 -0.8844
vn 0.4927 -0.2602 -0.8304
vn 0.0361 -0.3876 -0.9211
vn 0.7956 0.0000 -0.6059
vn 0.5373 0.0000 -0.8434
vn 0.4591 0.4714 -0.7530
vn 0.7011 0.4727 -0.5339
vn -0.0090 -0.0000 -1.0000
vn -0.4927 0.2602 -0.8304
vn -0.0361 0.3876 -0.9211
vn 0.0000 0.5863 0.8101
vn -0.5578 0.4909 0.6692
vn -0.0000 0.5361 0.8441
vn -0.5578 -0.4909 0.6692
vn -0.0000 -0.5863 0.8101
vn 0.8474 0.5084 -0.1531
vn 0.8702 0.4670 -0.1572
vn 0.8710 0.4654 -0.1573
vn 0.8474 -0.5084 -0.1531
vn 0.0000 0.2543 -0.9671
vn -0.5454 0.2628 -0.7959
vn 0.0000 0.2330 -0.9725
vn -0.5454 -0.2628 -0.7959
vn -0.0000 -0.2543 -0.9671
vn -0.8474 0.5084 -0.1531
vn -0.8710 0.4654 -0.1573
vn -0.8702 0.4670 -0.1572
vn -0.8474 -0.5084 -0.1531
vn 0.8245 0.4869 0.2884
vn 0.7329 0.4919 0.4700
vn 0.7536 0.4503 0.4789
vn 0.8459 0.4437 0.2959
vn 0.7329 -0.4919 0.4700
vn 0.8245 -0.4869 0.2884
vn 0.6002 0.4807 0.6393
vn 0.5578 0.4909 0.6692
vn 0.5668 0.4527 0.6884
vn 0.6118 0.4423 0.6558
vn 0.5578 -0.4909 0.6692
vn 0.6002 -0.4807 0.6393
vn -0.8245 -0.4869 0.2884
vn -0.7329 -0.4919 0.4700
vn -0.7536 -0.4503 0.4789
vn -0.8459 -0.4437 0.2959
vn -0.7329 0.4919 0.4700
vn -0.8245 0.4869 0.2884
vn -0.6002 -0.4807 0.6393
vn -0.6118 -0.4423 0.6558
vn -0.6002 0.4807 0.6393
vn -0.6819 0.5150 -0.5193
vn -0.4306 0.5140 -0.7419
vn -0.4591 0.4714 -0.7530
vn -0.7011 0.4727 -0.5339
vn -0.4306 -0.5140 -0.7419
vn -0.6819 -0.5150 -0.5193
vn 0.0696 0.4163 -0.9065
vn 0.5454 0.2628 -0.7959
vn 0.4927 0.2602 -0.8304
vn 0.0361 0.3876 -0.9211
vn 0.5454 -0.2628 -0.7959
vn 0.0696 -0.4163 -0.9065
vn 0.6819 -0.5150 -0.5193
vn 0.4306 -0.5140 -0.7419
vn 0.4591 -0.4714 -0.7530
vn 0.7011 -0.4727 -0.5339
vn 0.4306 0.5140 -0.7419
vn 0.6819 0.5150 -0.5193
vn -0.0696 -0.4163 -0.9065
vn -0.0361 -0.3876 -0.9211
vn -0.0696 0.4163 -0.9065
# 108 vertex normals

vt 0.5000 1.0000 0.0000
vt 0.5000 0.0000 0.0000
vt 0.6667 0.0000 0.0000
vt 0.6667 1.0000 0.0000
vt 0.3333 1.0000 0.0000
vt 0.3333 0.0000 0.0000
vt 0.5000 0.5000 0.0000
vt 0.3333 0.5000 0.0000
vt 0.3333 0.2500 0.0000
vt 0.5000 0.2500 0.0000
vt 1.0000 0.5000 0.0000
vt 0.0000 0.5000 0.0000
vt 0.0000 0.2500 0.0000
vt 1.0000 0.2500 0.0000
vt 0.0000 0.0000 0.0000
vt 0.1667 0.0000 0.0000
vt 0.1667 1.0000 0.0000
vt 0.0000 1.0000 0.0000
vt 0.2500 1.0000 0.0000
vt 0.2500 0.0000 0.0000
vt 1.0000 0.0000 0.0000
vt 1.0000 1.0000 0.0000
vt 0.8333 1.0000 0.0000
vt 0.8333 0.0000 0.0000
vt 0.7500 0.0000 0.0000
vt 0.7500 1.0000 0.0000
vt 0.8333 0.5000 0.0000
vt 0.8333 0.2500 0.0000
vt 0.7500 0.5000 0.0000
vt 0.6667 0.5000 0.0000
vt 0.6667 0.2500 0.0000
vt 0.7500 0.2500 0.0000
vt 0.1667 0.5000 0.0000
vt 0.1667 0.7500 0.0000
vt 0.0000 0.7500 0.0000
vt 0.2500 0.5000 0.0000
vt 0.3333 0.7500 0.0000
vt 0.2500 0.7500 0.0000
vt 0.5000 0.7500 0.0000
vt 1.0000 0.7500 0.0000
vt 0.8333 0.7500 0.0000
vt 0.6667 0.7500 0.0000
vt 0.7500 0.7500 0.0000
vt 0.1667 0.2500 0.0000
vt 0.2500 0.2500 0.0000
# 45 texture coords

g Hearth
usemtl 11___Default
f 1/1/1 2/2/1 3/3/1 
f 3/3/1 4/4/1 1/1/1 
f 5/2/2 6/1/2 7/5/2 
f 7/5/2 8/6/2 5/2/2 
f 9/7/3 10/8/4 11/9/5 
f 11/9/5 12/10/6 9/7/3 
f 13/11/7 14/12/8 15/13/9 
f 15/13/9 16/14/10 13/11/7 
f 17/7/11 18/8/12 19/9/13 
f 19/9/13 20/10/14 17/7/11 
f 21/11/15 22/12/16 23/13/17 
f 23/13/17 24/14/18 21/11/15 
f 25/15/1 26/16/1 27/17/1 
f 27/17/1 28/18/1 25/15/1 
f 29/19/1 30/20/1 31/6/1 
f 31/6/1 32/5/1 29/19/1 
f 32/5/1 31/6/1 2/2/1 
f 2/2/1 1/1/1 32/5/1 
f 33/21/1 34/22/1 35/23/1 
f 35/23/1 36/24/1 33/21/1 
f 37/25/1 38/26/1 4/4/1 
f 4/4/1 3/3/1 37/25/1 
f 39/21/2 40/22/2 41/23/2 
f 41/23/2 42/24/2 39/21/2 
f 43/25/2 44/26/2 45/4/2 
f 45/4/2 46/3/2 43/25/2 
f 46/3/2 45/4/2 6/1/2 
f 6/1/2 5/2/2 46/3/2 
f 47/15/2 48/16/2 49/17/2 
f 49/17/2 50/18/2 47/15/2 
f 51/19/2 52/20/2 8/6/2 
f 8/6/2 7/5/2 51/19/2 
f 14/11/19 53/27/20 54/28/21 
f 54/28/21 15/14/22 14/11/19 
f 55/29/23 56/30/24 57/31/25 
f 57/31/25 58/32/26 55/29/23 
f 56/30/24 9/7/3 12/10/6 
f 12/10/6 57/31/25 56/30/24 
f 21/12/27 59/33/28 60/34/29 
f 60/34/29 61/35/30 21/12/27 
f 62/36/31 10/8/4 63/37/32 
f 63/37/32 64/38/33 62/36/31 
f 22/11/34 65/27/35 66/28/36 
f 66/28/36 23/14/37 22/11/34 
f 67/29/38 68/30/39 69/31/40 
f 69/31/40 70/32/41 67/29/38 
f 68/30/39 17/7/11 20/10/14 
f 20/10/14 69/31/40 68/30/39 
f 13/12/42 71/33/43 72/34/44 
f 72/34/44 73/35/45 13/12/42 
f 74/36/46 18/8/12 75/37/47 
f 75/37/47 76/38/48 74/36/46 
f 27/17/1 26/16/1 30/20/1 
f 30/20/1 29/19/1 27/17/1 
f 36/24/1 35/23/1 38/26/1 
f 38/26/1 37/25/1 36/24/1 
f 42/24/2 41/23/2 44/26/2 
f 44/26/2 43/25/2 42/24/2 
f 49/17/2 48/16/2 52/20/2 
f 52/20/2 51/19/2 49/17/2 
f 53/27/20 55/29/23 58/32/26 
f 58/32/26 54/28/21 53/27/20 
f 59/33/28 62/36/31 64/38/33 
f 64/38/33 60/34/29 59/33/28 
f 65/27/35 67/29/38 70/32/41 
f 70/32/41 66/28/36 65/27/35 
f 71/33/43 74/36/46 76/38/48 
f 76/38/48 72/34/44 71/33/43 
f 5/1/49 8/5/50 63/37/32 
f 63/37/32 77/39/51 5/1/49 
f 77/39/51 63/37/32 10/8/4 
f 10/8/4 9/7/3 77/39/51 
f 3/6/52 2/2/53 12/10/6 
f 12/10/6 11/9/5 3/6/52 
f 40/22/54 39/18/54 78/35/55 
f 78/35/55 73/40/56 40/22/54 
f 73/40/56 78/35/55 14/12/8 
f 14/12/8 13/11/7 73/40/56 
f 25/15/57 28/21/57 16/14/10 
f 16/14/10 15/13/9 25/15/57 
f 6/1/58 45/5/59 75/37/47 
f 75/37/47 79/39/60 6/1/58 
f 79/39/60 75/37/47 18/8/12 
f 18/8/12 17/7/11 79/39/60 
f 32/6/61 1/2/62 20/10/14 
f 20/10/14 19/9/13 32/6/61 
f 47/22/63 50/18/63 80/35/64 
f 80/35/64 61/40/65 47/22/63 
f 61/40/65 80/35/64 22/12/16 
f 22/12/16 21/11/15 61/40/65 
f 34/15/66 33/21/66 24/14/18 
f 24/14/18 23/13/17 34/15/66 
f 39/22/67 42/23/68 81/41/69 
f 81/41/69 78/40/70 39/22/67 
f 78/40/70 81/41/69 53/27/20 
f 53/27/20 14/11/19 78/40/70 
f 26/24/71 25/21/72 15/14/22 
f 15/14/22 54/28/21 26/24/71 
f 43/26/73 46/4/74 82/42/75 
f 82/42/75 83/43/76 43/26/73 
f 83/43/76 82/42/75 56/30/24 
f 56/30/24 55/29/23 83/43/76 
f 31/3/77 30/25/78 58/32/26 
f 58/32/26 57/31/25 31/3/77 
f 46/4/74 5/1/49 77/39/51 
f 77/39/51 82/42/75 46/4/74 
f 56/30/24 82/42/75 77/39/51 
f 77/39/51 9/7/3 56/30/24 
f 2/2/53 31/3/77 57/31/25 
f 57/31/25 12/10/6 2/2/53 
f 33/15/79 36/16/80 84/44/81 
f 84/44/81 24/13/82 33/15/79 
f 24/13/82 84/44/81 59/33/28 
f 59/33/28 21/12/27 24/13/82 
f 48/17/83 47/18/84 61/35/30 
f 61/35/30 60/34/29 48/17/83 
f 37/20/85 3/6/52 11/9/5 
f 11/9/5 85/45/86 37/20/85 
f 85/45/86 11/9/5 10/8/4 
f 10/8/4 62/36/31 85/45/86 
f 8/5/50 52/19/87 64/38/33 
f 64/38/33 63/37/32 8/5/50 
f 50/22/88 49/23/89 86/41/90 
f 86/41/90 80/40/91 50/22/88 
f 80/40/91 86/41/90 65/27/35 
f 65/27/35 22/11/34 80/40/91 
f 35/24/92 34/21/93 23/14/37 
f 23/14/37 66/28/36 35/24/92 
f 51/26/94 7/4/95 87/42/96 
f 87/42/96 88/43/97 51/26/94 
f 67/29/38 88/43/97 87/42/96 
f 87/42/96 68/30/39 67/29/38 
f 4/3/98 38/25/99 70/32/41 
f 70/32/41 69/31/40 4/3/98 
f 7/4/95 6/1/58 79/39/60 
f 79/39/60 87/42/96 7/4/95 
f 87/42/96 79/39/60 17/7/11 
f 17/7/11 68/30/39 87/42/96 
f 1/2/62 4/3/98 69/31/40 
f 69/31/40 20/10/14 1/2/62 
f 28/15/100 27/16/101 89/44/102 
f 89/44/102 16/13/103 28/15/100 
f 16/13/103 89/44/102 71/33/43 
f 71/33/43 13/12/42 16/13/103 
f 41/17/104 40/18/105 73/35/45 
f 73/35/45 72/34/44 41/17/104 
f 29/20/106 32/6/61 19/9/13 
f 19/9/13 90/45/107 29/20/106 
f 74/36/46 90/45/107 19/9/13 
f 19/9/13 18/8/12 74/36/46 
f 45/5/59 44/19/108 76/38/48 
f 76/38/48 75/37/47 45/5/59 
f 42/23/68 43/26/73 83/43/76 
f 83/43/76 81/41/69 42/23/68 
f 81/41/69 83/43/76 55/29/23 
f 55/29/23 53/27/20 81/41/69 
f 30/25/78 26/24/71 54/28/21 
f 54/28/21 58/32/26 30/25/78 
f 36/16/80 37/20/85 85/45/86 
f 85/45/86 84/44/81 36/16/80 
f 84/44/81 85/45/86 62/36/31 
f 62/36/31 59/33/28 84/44/81 
f 52/19/87 48/17/83 60/34/29 
f 60/34/29 64/38/33 52/19/87 
f 49/23/89 51/26/94 88/43/97 
f 88/43/97 86/41/90 49/23/89 
f 86/41/90 88/43/97 67/29/38 
f 67/29/38 65/27/35 86/41/90 
f 38/25/99 35/24/92 66/28/36 
f 66/28/36 70/32/41 38/25/99 
f 27/16/101 29/20/106 90/45/107 
f 90/45/107 89/44/102 27/16/101 
f 89/44/102 90/45/107 74/36/46 
f 74/36/46 71/33/43 89/44/102 
f 44/19/108 41/17/104 72/34/44 
f 72/34/44 76/38/48 44/19/108 
# 176 faces

