# 3ds Max Wavefront OBJ Exporter v0.97b - (c)2007 guruware
# File Created: 12.12.2015 22:53:32

mtllib FancyStairPiece.mtl

#
# object FancyStairPiece
#

v  0.5000 0.0000 -0.1250
v  0.5000 0.0000 0.1250
v  -0.5000 0.0000 0.1250
v  -0.5000 0.0000 -0.1250
v  0.5000 1.0000 -0.1250
v  -0.5000 1.0000 -0.1250
v  -0.5000 1.0000 0.1250
v  0.5000 1.0000 0.1250
# 8 vertices

vn 0.0000 -1.0000 -0.0000
vn 0.0000 1.0000 -0.0000
vn 0.0000 0.0000 1.0000
vn 1.0000 0.0000 -0.0000
vn 0.0000 0.0000 -1.0000
vn -1.0000 0.0000 -0.0000
# 6 vertex normals

vt 0.0005 0.6249 0.0005
vt 0.0005 0.3751 0.0005
vt 0.9995 0.3751 0.0005
vt 0.9995 0.6249 0.0005
vt 0.9995 0.6249 0.9995
vt 0.0005 0.6249 0.9995
vt 0.0005 0.3751 0.9995
vt 0.9995 0.3751 0.9995
vt 0.9995 0.9995 0.3751
vt 0.0005 0.9995 0.3751
vt 0.0005 0.0005 0.3751
vt 0.9995 0.0005 0.3751
vt 0.6249 0.9995 0.9995
vt 0.3751 0.9995 0.9995
vt 0.3751 0.0005 0.9995
vt 0.6249 0.0005 0.9995
vt 0.9995 0.9995 0.6249
vt 0.0005 0.9995 0.6249
vt 0.0005 0.0005 0.6249
vt 0.9995 0.0005 0.6249
vt 0.6249 0.9995 0.0005
vt 0.3751 0.9995 0.0005
vt 0.3751 0.0005 0.0005
vt 0.6249 0.0005 0.0005
# 24 texture coords

g FancyStairPiece
usemtl Material__81
f 1/1/1 2/2/1 3/3/1 
f 3/3/1 4/4/1 1/1/1 
usemtl 13___Default
f 5/5/2 6/6/2 7/7/2 
f 7/7/2 8/8/2 5/5/2 
usemtl Material__81
f 8/9/3 7/10/3 3/11/3 
f 3/11/3 2/12/3 8/9/3 
f 5/13/4 8/14/4 2/15/4 
f 2/15/4 1/16/4 5/13/4 
f 6/17/5 5/18/5 1/19/5 
f 1/19/5 4/20/5 6/17/5 
f 7/21/6 6/22/6 4/23/6 
f 4/23/6 3/24/6 7/21/6 
# 12 faces

