# 3ds Max Wavefront OBJ Exporter v0.97b - (c)2007 guruware
# File Created: 12.12.2015 09:44:45

mtllib 360WalkWay.mtl

#
# object 360_WalkWay
#

v  -6218.3569 -0.0000 -528.3049
v  -5221.9590 0.0000 -443.4991
v  -5221.9590 -0.0000 443.4991
v  -6218.3569 0.0000 528.3049
v  -5221.9590 1000.0000 -443.4991
v  -6218.3569 1000.0000 -528.3050
v  -6218.3569 1000.0000 528.3049
v  -5221.9590 1000.0000 443.4991
v  6218.3564 -0.0008 -0.0005
v  5218.3564 -0.0008 -0.0005
v  5218.3564 999.9992 -0.0005
v  6218.3564 999.9992 -0.0006
v  5218.3564 0.0008 0.0005
v  6218.3564 0.0008 0.0005
v  6218.3564 1000.0008 0.0005
v  5218.3564 1000.0008 0.0004
v  5143.1338 0.0007 -883.8022
v  6128.7500 0.0007 -1052.8029
v  4919.6299 0.0006 -1742.1796
v  5862.5078 0.0006 -2075.3191
v  4554.2744 0.0005 -2550.4375
v  5427.2871 0.0005 -3038.1360
v  4057.5781 0.0005 -3285.3250
v  4835.6133 0.0004 -3913.5457
v  3443.8291 0.0004 -3925.6987
v  4104.5039 0.0004 -4676.3716
v  2730.6846 0.0003 -4453.1377
v  3254.9922 0.0003 -5304.6670
v  1938.6616 0.0003 -4852.4678
v  2311.5181 0.0002 -5780.3564
v  1090.5435 0.0002 -5112.2012
v  1301.2207 0.0002 -6089.7568
v  210.7295 0.0002 -5224.8657
v  253.1689 0.0001 -6223.9648
v  -675.4702 0.0001 -5187.2207
v  -802.4888 0.0001 -6179.1211
v  -1542.5601 0.0001 -5000.3486
v  -1835.3835 0.0001 -5956.5151
v  -2365.5957 0.0001 -4669.6255
v  -2815.8003 0.0000 -5562.5513
v  -3120.9011 0.0001 -4204.5659
v  -3715.5342 0.0000 -5008.5630
v  -3786.7461 0.0000 -3618.5486
v  -4508.7036 0.0000 -4310.4858
v  -4343.9761 0.0000 -2928.4324
v  -5172.4868 -0.0000 -3488.4055
v  -4776.5610 0.0000 -2154.0698
v  -5687.7900 -0.0000 -2565.9702
v  -5072.0557 0.0000 -1317.7402
v  -6039.7891 -0.0000 -1569.7164
v  6128.7500 -0.0007 1052.8029
v  5143.1338 -0.0007 883.8022
v  5862.5078 -0.0006 2075.3191
v  4919.6299 -0.0006 1742.1796
v  5427.2891 -0.0005 3038.1323
v  4554.2734 -0.0005 2550.4407
v  4835.6133 -0.0004 3913.5447
v  4057.5771 -0.0005 3285.3254
v  4104.5039 -0.0004 4676.3706
v  3443.8291 -0.0004 3925.6992
v  3254.9922 -0.0003 5304.6670
v  2730.6846 -0.0003 4453.1377
v  2311.5181 -0.0002 5780.3564
v  1938.6616 -0.0003 4852.4678
v  1301.2227 -0.0002 6089.7563
v  1090.5415 -0.0002 5112.2012
v  253.1709 -0.0001 6223.9648
v  210.7280 -0.0002 5224.8657
v  -802.4878 -0.0001 6179.1211
v  -675.4712 -0.0001 5187.2202
v  -1835.3826 -0.0001 5956.5151
v  -1542.5605 -0.0001 5000.3481
v  -2815.7993 -0.0000 5562.5518
v  -2365.5964 -0.0001 4669.6255
v  -3715.5342 -0.0000 5008.5630
v  -3120.9011 -0.0001 4204.5659
v  -4508.7021 -0.0000 4310.4873
v  -3786.7476 -0.0000 3618.5474
v  -5172.4858 0.0000 3488.4072
v  -4343.9771 -0.0000 2928.4309
v  -5687.7896 0.0000 2565.9712
v  -4776.5615 -0.0000 2154.0691
v  -6039.7881 0.0000 1569.7185
v  -5072.0557 -0.0000 1317.7385
v  6128.7500 1000.0007 -1052.8029
v  5143.1338 1000.0007 -883.8023
v  5862.5078 1000.0006 -2075.3191
v  4919.6299 1000.0006 -1742.1796
v  5427.2891 1000.0005 -3038.1323
v  4554.2734 1000.0005 -2550.4407
v  4835.6133 1000.0004 -3913.5447
v  4057.5771 1000.0005 -3285.3254
v  4104.5039 1000.0004 -4676.3706
v  3443.8291 1000.0004 -3925.6992
v  3254.9922 1000.0003 -5304.6670
v  2730.6846 1000.0004 -4453.1377
v  2311.5181 1000.0002 -5780.3564
v  1938.6616 1000.0003 -4852.4678
v  1301.2227 1000.0002 -6089.7563
v  1090.5415 1000.0002 -5112.2012
v  253.1709 1000.0002 -6223.9648
v  210.7280 1000.0002 -5224.8657
v  -802.4878 1000.0001 -6179.1211
v  -675.4712 1000.0001 -5187.2202
v  -1835.3826 1000.0001 -5956.5151
v  -1542.5605 1000.0001 -5000.3481
v  -2815.7993 1000.0001 -5562.5518
v  -2365.5964 1000.0001 -4669.6255
v  -3715.5342 1000.0000 -5008.5630
v  -3120.9011 1000.0001 -4204.5659
v  -4508.7021 1000.0000 -4310.4873
v  -3786.7476 1000.0000 -3618.5474
v  -5172.4858 1000.0000 -3488.4072
v  -4343.9771 1000.0000 -2928.4309
v  -5687.7896 1000.0000 -2565.9712
v  -4776.5615 1000.0000 -2154.0691
v  -6039.7881 1000.0000 -1569.7185
v  -5072.0557 1000.0000 -1317.7385
v  5143.1338 999.9993 883.8022
v  6128.7500 999.9993 1052.8029
v  4919.6299 999.9994 1742.1796
v  5862.5078 999.9994 2075.3191
v  4554.2744 999.9995 2550.4375
v  5427.2871 999.9995 3038.1360
v  4057.5781 999.9995 3285.3250
v  4835.6133 999.9996 3913.5457
v  3443.8291 999.9996 3925.6987
v  4104.5039 999.9996 4676.3716
v  2730.6846 999.9996 4453.1377
v  3254.9922 999.9997 5304.6670
v  1938.6616 999.9997 4852.4678
v  2311.5181 999.9998 5780.3564
v  1090.5435 999.9998 5112.2012
v  1301.2207 999.9998 6089.7568
v  210.7295 999.9998 5224.8657
v  253.1689 999.9998 6223.9648
v  -675.4702 999.9999 5187.2207
v  -802.4888 999.9999 6179.1211
v  -1542.5601 999.9999 5000.3486
v  -1835.3835 999.9999 5956.5151
v  -2365.5957 999.9999 4669.6255
v  -2815.8003 999.9999 5562.5513
v  -3120.9011 999.9999 4204.5659
v  -3715.5342 1000.0000 5008.5630
v  -3786.7461 1000.0000 3618.5486
v  -4508.7036 1000.0000 4310.4858
v  -4343.9761 1000.0000 2928.4324
v  -5172.4868 1000.0000 3488.4055
v  -4776.5610 1000.0000 2154.0698
v  -5687.7900 1000.0000 2565.9702
v  -5072.0557 1000.0000 1317.7402
v  -6039.7891 1000.0000 1569.7164
# 152 vertices

vn 0.0000 -1.0000 0.0000
vn 0.0000 -1.0000 -0.0000
vn -0.0000 -1.0000 -0.0000
vn -0.0000 -1.0000 0.0000
vn 0.0000 1.0000 -0.0000
vn -0.0000 -0.0000 -1.0000
vn 0.9964 0.0000 0.0848
vn 0.9964 0.0000 -0.0848
vn 0.9964 -0.0000 -0.0848
vn -0.0000 0.0000 1.0000
vn -0.9964 0.0000 0.0848
vn -0.9964 -0.0000 0.0848
vn -0.9964 -0.0000 -0.0848
vn -0.9964 0.0000 -0.0848
vn -0.0000 1.0000 -0.0000
vn -0.0000 1.0000 0.0000
vn 0.0000 1.0000 0.0000
vn -0.9856 0.0000 0.1690
vn -0.9429 0.0000 0.3331
vn -0.8730 0.0000 0.4877
vn -0.7780 -0.0000 0.6282
vn -0.6607 0.0000 0.7507
vn -0.5243 0.0000 0.8515
vn -0.3729 0.0000 0.9279
vn -0.3729 -0.0000 0.9279
vn -0.2107 -0.0000 0.9776
vn -0.0424 -0.0000 0.9991
vn 0.1270 -0.0000 0.9919
vn 0.2928 -0.0000 0.9562
vn 0.4502 0.0000 0.8929
vn 0.5946 0.0000 0.8040
vn 0.5946 -0.0000 0.8040
vn 0.7220 0.0000 0.6919
vn 0.7220 -0.0000 0.6919
vn 0.8285 0.0000 0.5600
vn 0.8285 -0.0000 0.5600
vn 0.9112 0.0000 0.4119
vn 0.9112 -0.0000 0.4119
vn 0.9677 0.0000 0.2520
vn 0.9677 -0.0000 0.2520
vn -0.9856 -0.0000 -0.1690
vn -0.9429 -0.0000 -0.3331
vn -0.8730 -0.0000 -0.4877
vn -0.7780 0.0000 -0.6282
vn -0.6607 -0.0000 -0.7507
vn -0.5243 -0.0000 -0.8515
vn -0.5243 0.0000 -0.8515
vn -0.3729 0.0000 -0.9279
vn -0.2107 0.0000 -0.9776
vn -0.0424 0.0000 -0.9991
vn 0.1270 0.0000 -0.9919
vn 0.2928 0.0000 -0.9562
vn 0.4502 -0.0000 -0.8929
vn 0.5946 -0.0000 -0.8040
vn 0.5946 0.0000 -0.8040
vn 0.7220 -0.0000 -0.6919
vn 0.7220 0.0000 -0.6919
vn 0.8285 -0.0000 -0.5600
vn 0.8285 0.0000 -0.5600
vn 0.9112 -0.0000 -0.4119
vn 0.9112 0.0000 -0.4119
vn 0.9677 -0.0000 -0.2520
vn 0.9677 0.0000 -0.2520
vn 0.9856 0.0000 0.1690
vn 0.9429 0.0000 0.3331
vn 0.8730 -0.0000 0.4877
vn 0.7780 -0.0000 0.6282
vn 0.6607 -0.0000 0.7507
vn 0.5243 -0.0000 0.8515
vn 0.5243 0.0000 0.8515
vn 0.3729 0.0000 0.9279
vn 0.2107 -0.0000 0.9776
vn 0.2107 0.0000 0.9776
vn 0.0424 -0.0000 0.9991
vn 0.0424 0.0000 0.9991
vn -0.1270 -0.0000 0.9919
vn -0.2928 -0.0000 0.9562
vn -0.4502 -0.0000 0.8929
vn -0.4502 0.0000 0.8929
vn -0.5946 -0.0000 0.8040
vn -0.5946 0.0000 0.8040
vn -0.7220 -0.0000 0.6919
vn -0.7220 0.0000 0.6919
vn -0.8285 -0.0000 0.5600
vn -0.8285 0.0000 0.5600
vn -0.9112 -0.0000 0.4119
vn -0.9112 0.0000 0.4119
vn -0.9677 -0.0000 0.2520
vn -0.9677 0.0000 0.2520
vn 0.9856 -0.0000 -0.1690
vn 0.9856 0.0000 -0.1690
vn 0.9429 0.0000 -0.3331
vn 0.9429 -0.0000 -0.3331
vn 0.8730 0.0000 -0.4877
vn 0.7780 0.0000 -0.6282
vn 0.6607 0.0000 -0.7507
vn 0.5243 0.0000 -0.8515
vn 0.3729 0.0000 -0.9279
vn 0.3729 -0.0000 -0.9279
vn 0.2107 0.0000 -0.9776
vn 0.2107 -0.0000 -0.9776
vn 0.0424 0.0000 -0.9991
vn 0.0424 -0.0000 -0.9991
vn -0.1270 0.0000 -0.9919
vn -0.2928 0.0000 -0.9562
vn -0.4502 0.0000 -0.8929
vn -0.4502 -0.0000 -0.8929
vn -0.5946 0.0000 -0.8040
vn -0.5946 -0.0000 -0.8040
vn -0.7220 0.0000 -0.6919
vn -0.7220 -0.0000 -0.6919
vn -0.8285 0.0000 -0.5600
vn -0.8285 -0.0000 -0.5600
vn -0.9112 0.0000 -0.4119
vn -0.9112 -0.0000 -0.4119
vn -0.9677 0.0000 -0.2520
vn -0.9677 -0.0000 -0.2520
# 117 vertex normals

vt 1.0000 0.5135 0.0000
vt 0.0000 0.5135 0.0000
vt 0.0000 0.4865 0.0000
vt 1.0000 0.4865 0.0000
vt 0.0000 0.0000 0.0000
vt 1.0000 0.0000 0.0000
vt 1.0000 1.0000 0.0000
vt 0.0000 1.0000 0.0000
vt 0.5135 0.0000 0.0000
vt 0.5135 1.0000 0.0000
vt 0.4865 1.0000 0.0000
vt 0.4865 0.0000 0.0000
vt 0.0000 0.9730 0.0000
vt 1.0000 0.9730 0.0000
vt 0.0000 0.9459 0.0000
vt 1.0000 0.9459 0.0000
vt 0.0000 0.9189 0.0000
vt 1.0000 0.9189 0.0000
vt 0.0000 0.8919 0.0000
vt 1.0000 0.8919 0.0000
vt 0.0000 0.8649 0.0000
vt 1.0000 0.8649 0.0000
vt 0.0000 0.8378 0.0000
vt 1.0000 0.8378 0.0000
vt 0.0000 0.8108 0.0000
vt 1.0000 0.8108 0.0000
vt 0.0000 0.7838 0.0000
vt 1.0000 0.7838 0.0000
vt 0.0000 0.7568 0.0000
vt 1.0000 0.7568 0.0000
vt 0.0000 0.7297 0.0000
vt 1.0000 0.7297 0.0000
vt 0.0000 0.7027 0.0000
vt 1.0000 0.7027 0.0000
vt 0.0000 0.6757 0.0000
vt 1.0000 0.6757 0.0000
vt 0.0000 0.6486 0.0000
vt 1.0000 0.6486 0.0000
vt 0.0000 0.6216 0.0000
vt 1.0000 0.6216 0.0000
vt 0.0000 0.5946 0.0000
vt 1.0000 0.5946 0.0000
vt 0.0000 0.5676 0.0000
vt 1.0000 0.5676 0.0000
vt 0.0000 0.5405 0.0000
vt 1.0000 0.5405 0.0000
vt 1.0000 0.0270 0.0000
vt 0.0000 0.0270 0.0000
vt 1.0000 0.0541 0.0000
vt 0.0000 0.0541 0.0000
vt 1.0000 0.0811 0.0000
vt 0.0000 0.0811 0.0000
vt 1.0000 0.1081 0.0000
vt 0.0000 0.1081 0.0000
vt 1.0000 0.1351 0.0000
vt 0.0000 0.1351 0.0000
vt 1.0000 0.1622 0.0000
vt 0.0000 0.1622 0.0000
vt 1.0000 0.1892 0.0000
vt 0.0000 0.1892 0.0000
vt 1.0000 0.2162 0.0000
vt 0.0000 0.2162 0.0000
vt 1.0000 0.2432 0.0000
vt 0.0000 0.2432 0.0000
vt 1.0000 0.2703 0.0000
vt 0.0000 0.2703 0.0000
vt 1.0000 0.2973 0.0000
vt 0.0000 0.2973 0.0000
vt 1.0000 0.3243 0.0000
vt 0.0000 0.3243 0.0000
vt 1.0000 0.3514 0.0000
vt 0.0000 0.3514 0.0000
vt 1.0000 0.3784 0.0000
vt 0.0000 0.3784 0.0000
vt 1.0000 0.4054 0.0000
vt 0.0000 0.4054 0.0000
vt 1.0000 0.4324 0.0000
vt 0.0000 0.4324 0.0000
vt 1.0000 0.4595 0.0000
vt 0.0000 0.4595 0.0000
vt 0.9730 1.0000 0.0000
vt 0.9730 0.0000 0.0000
vt 0.9459 1.0000 0.0000
vt 0.9459 0.0000 0.0000
vt 0.9189 1.0000 0.0000
vt 0.9189 0.0000 0.0000
vt 0.8919 1.0000 0.0000
vt 0.8919 0.0000 0.0000
vt 0.8649 1.0000 0.0000
vt 0.8649 0.0000 0.0000
vt 0.8378 1.0000 0.0000
vt 0.8378 0.0000 0.0000
vt 0.8108 1.0000 0.0000
vt 0.8108 0.0000 0.0000
vt 0.7838 1.0000 0.0000
vt 0.7838 0.0000 0.0000
vt 0.7568 1.0000 0.0000
vt 0.7568 0.0000 0.0000
vt 0.7297 1.0000 0.0000
vt 0.7297 0.0000 0.0000
vt 0.7027 1.0000 0.0000
vt 0.7027 0.0000 0.0000
vt 0.6757 1.0000 0.0000
vt 0.6757 0.0000 0.0000
vt 0.6486 1.0000 0.0000
vt 0.6486 0.0000 0.0000
vt 0.6216 1.0000 0.0000
vt 0.6216 0.0000 0.0000
vt 0.5946 1.0000 0.0000
vt 0.5946 0.0000 0.0000
vt 0.5676 1.0000 0.0000
vt 0.5676 0.0000 0.0000
vt 0.5405 1.0000 0.0000
vt 0.5405 0.0000 0.0000
vt 0.0270 0.0000 0.0000
vt 0.0270 1.0000 0.0000
vt 0.0541 0.0000 0.0000
vt 0.0541 1.0000 0.0000
vt 0.0811 0.0000 0.0000
vt 0.0811 1.0000 0.0000
vt 0.1081 0.0000 0.0000
vt 0.1081 1.0000 0.0000
vt 0.1351 0.0000 0.0000
vt 0.1351 1.0000 0.0000
vt 0.1622 0.0000 0.0000
vt 0.1622 1.0000 0.0000
vt 0.1892 0.0000 0.0000
vt 0.1892 1.0000 0.0000
vt 0.2162 0.0000 0.0000
vt 0.2162 1.0000 0.0000
vt 0.2432 0.0000 0.0000
vt 0.2432 1.0000 0.0000
vt 0.2703 0.0000 0.0000
vt 0.2703 1.0000 0.0000
vt 0.2973 0.0000 0.0000
vt 0.2973 1.0000 0.0000
vt 0.3243 0.0000 0.0000
vt 0.3243 1.0000 0.0000
vt 0.3514 0.0000 0.0000
vt 0.3514 1.0000 0.0000
vt 0.3784 0.0000 0.0000
vt 0.3784 1.0000 0.0000
vt 0.4054 0.0000 0.0000
vt 0.4054 1.0000 0.0000
vt 0.4324 0.0000 0.0000
vt 0.4324 1.0000 0.0000
vt 0.4595 0.0000 0.0000
vt 0.4595 1.0000 0.0000
# 148 texture coords

g 360_WalkWay
usemtl wire_145028177
f 1/1/1 2/2/2 3/3/3 
f 3/3/3 4/4/4 1/1/1 
f 5/1/5 6/2/5 7/3/5 
f 7/3/5 8/4/5 5/1/5 
f 9/5/6 10/6/6 11/7/6 
f 11/7/6 12/8/6 9/5/6 
f 2/9/7 5/10/7 8/11/8 
f 8/11/8 3/12/9 2/9/7 
f 13/5/10 14/6/10 15/7/10 
f 15/7/10 16/8/10 13/5/10 
f 4/9/11 7/10/12 6/11/13 
f 6/11/13 1/12/14 4/9/11 
f 14/7/1 13/8/4 17/13/1 
f 17/13/1 18/14/1 14/7/1 
f 18/14/1 17/13/1 19/15/1 
f 19/15/1 20/16/1 18/14/1 
f 20/16/1 19/15/1 21/17/1 
f 21/17/1 22/18/1 20/16/1 
f 22/18/1 21/17/1 23/19/1 
f 23/19/1 24/20/1 22/18/1 
f 24/20/1 23/19/1 25/21/1 
f 25/21/1 26/22/1 24/20/1 
f 26/22/1 25/21/1 27/23/1 
f 27/23/1 28/24/1 26/22/1 
f 28/24/1 27/23/1 29/25/1 
f 29/25/1 30/26/1 28/24/1 
f 30/26/1 29/25/1 31/27/1 
f 31/27/1 32/28/1 30/26/1 
f 32/28/1 31/27/1 33/29/1 
f 33/29/1 34/30/1 32/28/1 
f 34/30/1 33/29/1 35/31/1 
f 35/31/1 36/32/1 34/30/1 
f 36/32/1 35/31/1 37/33/1 
f 37/33/1 38/34/1 36/32/1 
f 38/34/1 37/33/1 39/35/1 
f 39/35/1 40/36/1 38/34/1 
f 40/36/1 39/35/1 41/37/1 
f 41/37/1 42/38/1 40/36/1 
f 42/38/1 41/37/1 43/39/1 
f 43/39/1 44/40/1 42/38/1 
f 44/40/1 43/39/1 45/41/1 
f 45/41/1 46/42/1 44/40/1 
f 46/42/1 45/41/1 47/43/1 
f 47/43/1 48/44/1 46/42/1 
f 48/44/1 47/43/1 49/45/2 
f 49/45/2 50/46/1 48/44/1 
f 50/46/1 49/45/2 2/2/2 
f 2/2/2 1/1/1 50/46/1 
f 10/5/4 9/6/1 51/47/4 
f 51/47/4 52/48/4 10/5/4 
f 52/48/4 51/47/4 53/49/4 
f 53/49/4 54/50/4 52/48/4 
f 54/50/4 53/49/4 55/51/4 
f 55/51/4 56/52/4 54/50/4 
f 56/52/4 55/51/4 57/53/4 
f 57/53/4 58/54/4 56/52/4 
f 58/54/4 57/53/4 59/55/4 
f 59/55/4 60/56/4 58/54/4 
f 60/56/4 59/55/4 61/57/4 
f 61/57/4 62/58/4 60/56/4 
f 62/58/4 61/57/4 63/59/4 
f 63/59/4 64/60/4 62/58/4 
f 64/60/4 63/59/4 65/61/4 
f 65/61/4 66/62/4 64/60/4 
f 66/62/4 65/61/4 67/63/4 
f 67/63/4 68/64/4 66/62/4 
f 68/64/4 67/63/4 69/65/4 
f 69/65/4 70/66/4 68/64/4 
f 70/66/4 69/65/4 71/67/4 
f 71/67/4 72/68/4 70/66/4 
f 72/68/4 71/67/4 73/69/4 
f 73/69/4 74/70/4 72/68/4 
f 74/70/4 73/69/4 75/71/4 
f 75/71/4 76/72/4 74/70/4 
f 76/72/4 75/71/4 77/73/4 
f 77/73/4 78/74/4 76/72/4 
f 78/74/4 77/73/4 79/75/4 
f 79/75/4 80/76/4 78/74/4 
f 80/76/4 79/75/4 81/77/4 
f 81/77/4 82/78/4 80/76/4 
f 82/78/4 81/77/4 83/79/4 
f 83/79/4 84/80/3 82/78/4 
f 84/80/3 83/79/4 4/4/4 
f 4/4/4 3/3/3 84/80/3 
f 16/7/15 15/8/5 85/13/15 
f 85/13/15 86/14/15 16/7/15 
f 86/14/15 85/13/15 87/15/15 
f 87/15/15 88/16/15 86/14/15 
f 88/16/15 87/15/15 89/17/15 
f 89/17/15 90/18/15 88/16/15 
f 90/18/15 89/17/15 91/19/15 
f 91/19/15 92/20/15 90/18/15 
f 92/20/15 91/19/15 93/21/15 
f 93/21/15 94/22/15 92/20/15 
f 94/22/15 93/21/15 95/23/15 
f 95/23/15 96/24/5 94/22/15 
f 96/24/5 95/23/15 97/25/15 
f 97/25/15 98/26/15 96/24/5 
f 98/26/15 97/25/15 99/27/15 
f 99/27/15 100/28/15 98/26/15 
f 100/28/15 99/27/15 101/29/15 
f 101/29/15 102/30/16 100/28/15 
f 102/30/16 101/29/15 103/31/16 
f 103/31/16 104/32/16 102/30/16 
f 104/32/16 103/31/16 105/33/16 
f 105/33/16 106/34/15 104/32/16 
f 106/34/15 105/33/16 107/35/15 
f 107/35/15 108/36/15 106/34/15 
f 108/36/15 107/35/15 109/37/15 
f 109/37/15 110/38/15 108/36/15 
f 110/38/15 109/37/15 111/39/15 
f 111/39/15 112/40/16 110/38/15 
f 112/40/16 111/39/15 113/41/5 
f 113/41/5 114/42/5 112/40/16 
f 114/42/5 113/41/5 115/43/5 
f 115/43/5 116/44/5 114/42/5 
f 116/44/5 115/43/5 117/45/5 
f 117/45/5 118/46/5 116/44/5 
f 118/46/5 117/45/5 6/2/5 
f 6/2/5 5/1/5 118/46/5 
f 12/5/5 11/6/15 119/47/5 
f 119/47/5 120/48/5 12/5/5 
f 120/48/5 119/47/5 121/49/5 
f 121/49/5 122/50/5 120/48/5 
f 122/50/5 121/49/5 123/51/5 
f 123/51/5 124/52/5 122/50/5 
f 124/52/5 123/51/5 125/53/5 
f 125/53/5 126/54/5 124/52/5 
f 126/54/5 125/53/5 127/55/5 
f 127/55/5 128/56/5 126/54/5 
f 128/56/5 127/55/5 129/57/5 
f 129/57/5 130/58/5 128/56/5 
f 130/58/5 129/57/5 131/59/5 
f 131/59/5 132/60/5 130/58/5 
f 132/60/5 131/59/5 133/61/5 
f 133/61/5 134/62/5 132/60/5 
f 134/62/5 133/61/5 135/63/5 
f 135/63/5 136/64/17 134/62/5 
f 136/64/17 135/63/5 137/65/17 
f 137/65/17 138/66/17 136/64/17 
f 138/66/17 137/65/17 139/67/15 
f 139/67/15 140/68/5 138/66/17 
f 140/68/5 139/67/15 141/69/5 
f 141/69/5 142/70/5 140/68/5 
f 142/70/5 141/69/5 143/71/5 
f 143/71/5 144/72/5 142/70/5 
f 144/72/5 143/71/5 145/73/5 
f 145/73/5 146/74/5 144/72/5 
f 146/74/5 145/73/5 147/75/5 
f 147/75/5 148/76/5 146/74/5 
f 148/76/5 147/75/5 149/77/5 
f 149/77/5 150/78/5 148/76/5 
f 150/78/5 149/77/5 151/79/5 
f 151/79/5 152/80/5 150/78/5 
f 152/80/5 151/79/5 8/4/5 
f 8/4/5 7/3/5 152/80/5 
f 13/6/11 16/7/11 86/81/18 
f 86/81/18 17/82/18 13/6/11 
f 17/82/18 86/81/18 88/83/19 
f 88/83/19 19/84/19 17/82/18 
f 19/84/19 88/83/19 90/85/20 
f 90/85/20 21/86/20 19/84/19 
f 21/86/20 90/85/20 92/87/21 
f 92/87/21 23/88/21 21/86/20 
f 23/88/21 92/87/21 94/89/22 
f 94/89/22 25/90/22 23/88/21 
f 25/90/22 94/89/22 96/91/23 
f 96/91/23 27/92/23 25/90/22 
f 27/92/23 96/91/23 98/93/24 
f 98/93/24 29/94/25 27/92/23 
f 29/94/25 98/93/24 100/95/26 
f 100/95/26 31/96/26 29/94/25 
f 31/96/26 100/95/26 102/97/27 
f 102/97/27 33/98/27 31/96/26 
f 33/98/27 102/97/27 104/99/28 
f 104/99/28 35/100/28 33/98/27 
f 35/100/28 104/99/28 106/101/29 
f 106/101/29 37/102/29 35/100/28 
f 37/102/29 106/101/29 108/103/30 
f 108/103/30 39/104/30 37/102/29 
f 39/104/30 108/103/30 110/105/31 
f 110/105/31 41/106/32 39/104/30 
f 41/106/32 110/105/31 112/107/33 
f 112/107/33 43/108/34 41/106/32 
f 43/108/34 112/107/33 114/109/35 
f 114/109/35 45/110/36 43/108/34 
f 45/110/36 114/109/35 116/111/37 
f 116/111/37 47/112/38 45/110/36 
f 47/112/38 116/111/37 118/113/39 
f 118/113/39 49/114/40 47/112/38 
f 49/114/40 118/113/39 5/10/7 
f 5/10/7 2/9/7 49/114/40 
f 11/8/13 10/5/13 52/115/41 
f 52/115/41 119/116/41 11/8/13 
f 119/116/41 52/115/41 54/117/42 
f 54/117/42 121/118/42 119/116/41 
f 121/118/42 54/117/42 56/119/43 
f 56/119/43 123/120/43 121/118/42 
f 123/120/43 56/119/43 58/121/44 
f 58/121/44 125/122/44 123/120/43 
f 125/122/44 58/121/44 60/123/45 
f 60/123/45 127/124/45 125/122/44 
f 127/124/45 60/123/45 62/125/46 
f 62/125/46 129/126/47 127/124/45 
f 129/126/47 62/125/46 64/127/48 
f 64/127/48 131/128/48 129/126/47 
f 131/128/48 64/127/48 66/129/49 
f 66/129/49 133/130/49 131/128/48 
f 133/130/49 66/129/49 68/131/50 
f 68/131/50 135/132/50 133/130/49 
f 135/132/50 68/131/50 70/133/51 
f 70/133/51 137/134/51 135/132/50 
f 137/134/51 70/133/51 72/135/52 
f 72/135/52 139/136/52 137/134/51 
f 139/136/52 72/135/52 74/137/53 
f 74/137/53 141/138/53 139/136/52 
f 141/138/53 74/137/53 76/139/54 
f 76/139/54 143/140/55 141/138/53 
f 143/140/55 76/139/54 78/141/56 
f 78/141/56 145/142/57 143/140/55 
f 145/142/57 78/141/56 80/143/58 
f 80/143/58 147/144/59 145/142/57 
f 147/144/59 80/143/58 82/145/60 
f 82/145/60 149/146/61 147/144/59 
f 149/146/61 82/145/60 84/147/62 
f 84/147/62 151/148/63 149/146/61 
f 151/148/63 84/147/62 3/12/9 
f 3/12/9 8/11/8 151/148/63 
f 9/6/7 12/7/7 120/81/64 
f 120/81/64 51/82/64 9/6/7 
f 51/82/64 120/81/64 122/83/65 
f 122/83/65 53/84/65 51/82/64 
f 53/84/65 122/83/65 124/85/66 
f 124/85/66 55/86/66 53/84/65 
f 55/86/66 124/85/66 126/87/67 
f 126/87/67 57/88/67 55/86/66 
f 57/88/67 126/87/67 128/89/68 
f 128/89/68 59/90/68 57/88/67 
f 59/90/68 128/89/68 130/91/69 
f 130/91/69 61/92/70 59/90/68 
f 61/92/70 130/91/69 132/93/71 
f 132/93/71 63/94/71 61/92/70 
f 63/94/71 132/93/71 134/95/72 
f 134/95/72 65/96/73 63/94/71 
f 65/96/73 134/95/72 136/97/74 
f 136/97/74 67/98/75 65/96/73 
f 67/98/75 136/97/74 138/99/76 
f 138/99/76 69/100/76 67/98/75 
f 69/100/76 138/99/76 140/101/77 
f 140/101/77 71/102/77 69/100/76 
f 71/102/77 140/101/77 142/103/78 
f 142/103/78 73/104/79 71/102/77 
f 73/104/79 142/103/78 144/105/80 
f 144/105/80 75/106/81 73/104/79 
f 75/106/81 144/105/80 146/107/82 
f 146/107/82 77/108/83 75/106/81 
f 77/108/83 146/107/82 148/109/84 
f 148/109/84 79/110/85 77/108/83 
f 79/110/85 148/109/84 150/111/86 
f 150/111/86 81/112/87 79/110/85 
f 81/112/87 150/111/86 152/113/88 
f 152/113/88 83/114/89 81/112/87 
f 83/114/89 152/113/88 7/10/12 
f 7/10/12 4/9/11 83/114/89 
f 15/8/9 14/5/9 18/115/90 
f 18/115/90 85/116/91 15/8/9 
f 85/116/91 18/115/90 20/117/92 
f 20/117/92 87/118/93 85/116/91 
f 87/118/93 20/117/92 22/119/94 
f 22/119/94 89/120/94 87/118/93 
f 89/120/94 22/119/94 24/121/95 
f 24/121/95 91/122/95 89/120/94 
f 91/122/95 24/121/95 26/123/96 
f 26/123/96 93/124/96 91/122/95 
f 93/124/96 26/123/96 28/125/97 
f 28/125/97 95/126/97 93/124/96 
f 95/126/97 28/125/97 30/127/98 
f 30/127/98 97/128/99 95/126/97 
f 97/128/99 30/127/98 32/129/100 
f 32/129/100 99/130/101 97/128/99 
f 99/130/101 32/129/100 34/131/102 
f 34/131/102 101/132/103 99/130/101 
f 101/132/103 34/131/102 36/133/104 
f 36/133/104 103/134/104 101/132/103 
f 103/134/104 36/133/104 38/135/105 
f 38/135/105 105/136/105 103/134/104 
f 105/136/105 38/135/105 40/137/106 
f 40/137/106 107/138/107 105/136/105 
f 107/138/107 40/137/106 42/139/108 
f 42/139/108 109/140/109 107/138/107 
f 109/140/109 42/139/108 44/141/110 
f 44/141/110 111/142/111 109/140/109 
f 111/142/111 44/141/110 46/143/112 
f 46/143/112 113/144/113 111/142/111 
f 113/144/113 46/143/112 48/145/114 
f 48/145/114 115/146/115 113/144/113 
f 115/146/115 48/145/114 50/147/116 
f 50/147/116 117/148/117 115/146/115 
f 117/148/117 50/147/116 1/12/14 
f 1/12/14 6/11/13 117/148/117 
# 300 faces

