# 3ds Max Wavefront OBJ Exporter v0.97b - (c)2007 guruware
# File Created: 12.12.2015 16:25:06

mtllib Box.mtl

#
# object Box
#

v  0.5000 0.0000 -0.5000
v  0.5000 0.0000 0.5000
v  -0.5000 0.0000 0.5000
v  -0.5000 0.0000 -0.5000
v  0.5000 1.0000 -0.5000
v  -0.5000 1.0000 -0.5000
v  -0.5000 1.0000 0.5000
v  0.5000 1.0000 0.5000
# 8 vertices

vn 0.0000 -1.0000 -0.0000
vn 0.0000 1.0000 -0.0000
vn 0.0000 0.0000 1.0000
vn 1.0000 0.0000 -0.0000
vn 0.0000 0.0000 -1.0000
vn -1.0000 0.0000 -0.0000
# 6 vertex normals

vt 0.0005 0.9995 0.0005
vt 0.0005 0.0005 0.0005
vt 0.9995 0.0005 0.0005
vt 0.9995 0.9995 0.0005
vt 0.9995 0.9995 0.9995
vt 0.0005 0.9995 0.9995
vt 0.0005 0.0005 0.9995
vt 0.9995 0.0005 0.9995
# 8 texture coords

g Box
usemtl Material__81
f 1/1/1 2/2/1 3/3/1 
f 3/3/1 4/4/1 1/1/1 
usemtl 13___Default
f 5/5/2 6/6/2 7/7/2 
f 7/7/2 8/8/2 5/5/2 
usemtl Material__81
f 8/4/3 7/1/3 3/2/3 
f 3/2/3 2/3/3 8/4/3 
f 5/5/4 8/6/4 2/7/4 
f 2/7/4 1/8/4 5/5/4 
f 6/5/5 5/6/5 1/7/5 
f 1/7/5 4/8/5 6/5/5 
f 7/4/6 6/1/6 4/2/6 
f 4/2/6 3/3/6 7/4/6 
# 12 faces

