# 3ds Max Wavefront OBJ Exporter v0.97b - (c)2007 guruware
# File Created: 12.12.2015 23:27:59

mtllib Arch.mtl

#
# object Arch
#

v  0.0000 2.0000 -0.0000
v  0.0000 2.0000 0.1250
v  0.1250 2.0000 0.1250
v  0.1250 2.0000 -0.0000
v  0.0000 2.0000 -0.5000
v  0.0000 2.0000 -0.3750
v  0.1250 2.0000 -0.3750
v  0.1250 2.0000 -0.5000
v  0.0000 2.0000 -0.2500
v  0.1250 2.0000 -0.2500
v  0.0000 2.0000 -0.1250
v  0.1250 2.0000 -0.1250
v  0.0000 2.0000 0.5000
v  0.0000 2.0000 0.3750
v  -0.1250 2.0000 0.3750
v  -0.1250 2.0000 0.5000
v  0.0000 2.0000 0.2500
v  -0.1250 2.0000 0.2500
v  -0.1250 2.0000 0.1250
v  0.5000 1.6155 -0.5000
v  0.5000 1.6155 -0.3750
v  0.5000 1.5166 -0.3750
v  0.5000 1.5166 -0.5000
v  0.5000 1.6155 -0.2500
v  0.5000 1.5166 -0.2500
v  0.5000 1.6155 0.5000
v  0.5000 1.6155 0.3750
v  0.5000 1.7145 0.3750
v  0.5000 1.7145 0.5000
v  0.5000 1.6155 0.2500
v  0.5000 1.7145 0.2500
v  -0.5000 1.6155 0.5000
v  -0.5000 1.6155 0.3750
v  -0.5000 1.5166 0.3750
v  -0.5000 1.5166 0.5000
v  -0.5000 1.6155 0.2500
v  -0.5000 1.5166 0.2500
v  -0.5000 1.6155 -0.5000
v  -0.5000 1.6155 -0.3750
v  -0.5000 1.7145 -0.3750
v  -0.5000 1.7145 -0.5000
v  -0.5000 1.6155 -0.2500
v  -0.5000 1.7145 -0.2500
v  -0.5000 2.0000 -0.0000
v  -0.5000 2.0000 0.1250
v  -0.3750 2.0000 0.1250
v  -0.3750 2.0000 -0.0000
v  -0.2500 2.0000 0.1250
v  -0.2500 2.0000 -0.0000
v  -0.1250 2.0000 -0.0000
v  0.5000 2.0000 0.1250
v  0.5000 2.0000 -0.0000
v  0.3750 2.0000 -0.0000
v  0.3750 2.0000 0.1250
v  0.2500 2.0000 -0.0000
v  0.2500 2.0000 0.1250
v  0.3750 1.6155 0.5000
v  0.3750 1.5166 0.5000
v  0.5000 1.5166 0.5000
v  -0.3750 1.6155 0.5000
v  -0.3750 1.7145 0.5000
v  -0.5000 1.7145 0.5000
v  -0.3750 1.6155 -0.5000
v  -0.3750 1.5166 -0.5000
v  -0.5000 1.5166 -0.5000
v  0.3750 1.6155 -0.5000
v  0.3750 1.7145 -0.5000
v  0.5000 1.7145 -0.5000
v  0.5000 0.0000 -0.5000
v  0.5000 0.0000 -0.3750
v  0.3750 0.0000 -0.3750
v  0.3750 0.0000 -0.5000
v  -0.5000 0.0000 -0.3750
v  -0.5000 0.0000 -0.5000
v  -0.3750 0.0000 -0.5000
v  -0.3750 0.0000 -0.3750
v  -0.5000 0.0000 0.5000
v  -0.5000 0.0000 0.3750
v  -0.3750 0.0000 0.3750
v  -0.3750 0.0000 0.5000
v  0.5000 0.0000 0.3750
v  0.5000 0.0000 0.5000
v  0.3750 0.0000 0.5000
v  0.3750 0.0000 0.3750
v  -0.5000 2.0000 -0.5000
v  -0.5000 2.0000 -0.3750
v  -0.3750 2.0000 -0.3750
v  -0.3750 2.0000 -0.5000
v  -0.2500 2.0000 -0.3750
v  -0.2500 2.0000 -0.5000
v  -0.1250 2.0000 -0.3750
v  -0.1250 2.0000 -0.5000
v  0.5000 2.0000 -0.3750
v  0.5000 2.0000 -0.5000
v  0.3750 2.0000 -0.5000
v  0.3750 2.0000 -0.3750
v  0.2500 2.0000 -0.5000
v  0.2500 2.0000 -0.3750
v  -0.5000 2.0000 -0.2500
v  -0.3750 2.0000 -0.2500
v  -0.2500 2.0000 -0.2500
v  -0.1250 2.0000 -0.2500
v  0.5000 2.0000 -0.2500
v  0.3750 2.0000 -0.2500
v  0.2500 2.0000 -0.2500
v  -0.5000 2.0000 -0.1250
v  -0.3750 2.0000 -0.1250
v  -0.2500 2.0000 -0.1250
v  -0.1250 2.0000 -0.1250
v  0.5000 2.0000 -0.1250
v  0.3750 2.0000 -0.1250
v  0.2500 2.0000 -0.1250
v  0.5000 2.0000 0.5000
v  0.5000 2.0000 0.3750
v  0.3750 2.0000 0.3750
v  0.3750 2.0000 0.5000
v  0.2500 2.0000 0.3750
v  0.2500 2.0000 0.5000
v  0.1250 2.0000 0.3750
v  0.1250 2.0000 0.5000
v  -0.5000 2.0000 0.3750
v  -0.5000 2.0000 0.5000
v  -0.3750 2.0000 0.5000
v  -0.3750 2.0000 0.3750
v  -0.2500 2.0000 0.5000
v  -0.2500 2.0000 0.3750
v  0.5000 2.0000 0.2500
v  0.3750 2.0000 0.2500
v  0.2500 2.0000 0.2500
v  0.1250 2.0000 0.2500
v  -0.5000 2.0000 0.2500
v  -0.3750 2.0000 0.2500
v  -0.2500 2.0000 0.2500
v  -0.1250 1.8134 0.5000
v  0.0000 1.8134 0.5000
v  0.5000 1.8134 0.1250
v  0.5000 1.8134 -0.0000
v  0.1250 1.8134 -0.5000
v  0.0000 1.8134 -0.5000
v  -0.5000 1.8134 -0.1250
v  -0.5000 1.8134 -0.0000
v  0.5000 1.8134 -0.3750
v  0.5000 1.8134 -0.5000
v  0.5000 1.7145 -0.3750
v  0.5000 1.4176 -0.5000
v  0.5000 1.4176 -0.3750
v  0.5000 1.8134 -0.2500
v  0.5000 1.7145 -0.2500
v  0.5000 1.4176 -0.2500
v  0.5000 1.8134 -0.1250
v  0.5000 1.7145 -0.1250
v  0.5000 1.4176 0.3750
v  0.5000 1.4176 0.5000
v  0.5000 1.5166 0.3750
v  0.5000 1.8134 0.5000
v  0.5000 1.8134 0.3750
v  0.5000 1.4176 0.2500
v  0.5000 1.5166 0.2500
v  0.5000 1.8134 0.2500
v  0.5000 1.7145 0.1250
v  -0.5000 1.8134 0.3750
v  -0.5000 1.8134 0.5000
v  -0.5000 1.7145 0.3750
v  -0.5000 1.4176 0.5000
v  -0.5000 1.4176 0.3750
v  -0.5000 1.8134 0.2500
v  -0.5000 1.7145 0.2500
v  -0.5000 1.4176 0.2500
v  -0.5000 1.8134 0.1250
v  -0.5000 1.7145 0.1250
v  -0.5000 1.4176 -0.3750
v  -0.5000 1.4176 -0.5000
v  -0.5000 1.5166 -0.3750
v  -0.5000 1.8134 -0.5000
v  -0.5000 1.8134 -0.3750
v  -0.5000 1.4176 -0.2500
v  -0.5000 1.5166 -0.2500
v  -0.5000 1.8134 -0.2500
v  -0.5000 1.7145 -0.1250
v  0.3750 1.8134 0.5000
v  0.3750 1.7145 0.5000
v  0.3750 1.4176 0.5000
v  0.2500 1.8134 0.5000
v  0.1250 1.8134 0.5000
v  -0.3750 1.4176 0.5000
v  -0.3750 1.5166 0.5000
v  -0.3750 1.8134 0.5000
v  -0.2500 1.8134 0.5000
v  -0.3750 1.8134 -0.5000
v  -0.3750 1.7145 -0.5000
v  -0.3750 1.4176 -0.5000
v  -0.2500 1.8134 -0.5000
v  -0.1250 1.8134 -0.5000
v  0.3750 1.4176 -0.5000
v  0.3750 1.5166 -0.5000
v  0.3750 1.8134 -0.5000
v  0.2500 1.8134 -0.5000
v  -0.3750 1.8144 -0.3750
v  -0.5000 1.8144 -0.3750
v  0.3750 1.8655 0.3750
v  0.5000 1.8655 0.3750
v  0.5000 1.8144 -0.3750
v  0.3750 1.8144 -0.3750
v  -0.5000 1.8655 0.3750
v  -0.3750 1.8655 0.3750
v  0.3750 1.8144 -0.5000
v  -0.3750 1.8144 -0.5000
v  -0.3750 1.8655 0.5000
v  0.3750 1.8655 0.5000
v  0.5000 1.8127 0.3750
v  -0.5000 1.8127 0.3750
v  0.5000 1.8127 0.5001
v  -0.5000 1.8127 0.5001
v  -0.5000 1.8138 -0.3750
v  0.5000 1.8138 -0.3750
v  -0.5000 1.8138 -0.4973
v  0.5000 1.8138 -0.4973
# 217 vertices

vn 0.0000 1.0000 -0.0000
vn 1.0000 0.0000 -0.0000
vn -1.0000 0.0000 -0.0000
vn 0.0000 0.0000 1.0000
vn 0.0000 0.0000 -1.0000
vn 0.0000 -1.0000 -0.0000
vn -0.0000 -1.0000 -0.0000
# 7 vertex normals

vt 0.5000 0.5000 0.9995
vt 0.5000 0.3751 0.9995
vt 0.6249 0.3751 0.9995
vt 0.6249 0.5000 0.9995
vt 0.5000 0.9995 0.9995
vt 0.5000 0.8746 0.9995
vt 0.6249 0.8746 0.9995
vt 0.6249 0.9995 0.9995
vt 0.5000 0.7498 0.9995
vt 0.6249 0.7498 0.9995
vt 0.5000 0.6249 0.9995
vt 0.6249 0.6249 0.9995
vt 0.5000 0.0005 0.9995
vt 0.5000 0.1254 0.9995
vt 0.3751 0.1254 0.9995
vt 0.3751 0.0005 0.9995
vt 0.5000 0.2502 0.9995
vt 0.3751 0.2502 0.9995
vt 0.3751 0.3751 0.9995
vt 0.9995 0.8075 0.9995
vt 0.8746 0.8075 0.9995
vt 0.8746 0.7580 0.9995
vt 0.9995 0.7580 0.9995
vt 0.7498 0.8075 0.9995
vt 0.7498 0.7580 0.9995
vt 0.0005 0.8075 0.9995
vt 0.1254 0.8075 0.9995
vt 0.1254 0.8569 0.9995
vt 0.0005 0.8569 0.9995
vt 0.2502 0.8075 0.9995
vt 0.2502 0.8569 0.9995
vt 0.9995 0.8075 0.0005
vt 0.8746 0.8075 0.0005
vt 0.8746 0.7580 0.0005
vt 0.9995 0.7580 0.0005
vt 0.7498 0.8075 0.0005
vt 0.7498 0.7580 0.0005
vt 0.0005 0.8075 0.0005
vt 0.1254 0.8075 0.0005
vt 0.1254 0.8569 0.0005
vt 0.0005 0.8569 0.0005
vt 0.2502 0.8075 0.0005
vt 0.2502 0.8569 0.0005
vt 0.0005 0.5000 0.9995
vt 0.0005 0.3751 0.9995
vt 0.1254 0.3751 0.9995
vt 0.1254 0.5000 0.9995
vt 0.2502 0.3751 0.9995
vt 0.2502 0.5000 0.9995
vt 0.3751 0.5000 0.9995
vt 0.9995 0.3751 0.9995
vt 0.9995 0.5000 0.9995
vt 0.8746 0.5000 0.9995
vt 0.8746 0.3751 0.9995
vt 0.7498 0.5000 0.9995
vt 0.7498 0.3751 0.9995
vt 0.0005 0.9995 0.0005
vt 0.0005 0.8746 0.0005
vt 0.1254 0.8746 0.0005
vt 0.1254 0.9995 0.0005
vt 0.9995 0.8746 0.0005
vt 0.9995 0.9995 0.0005
vt 0.8746 0.9995 0.0005
vt 0.8746 0.8746 0.0005
vt 0.9995 0.0005 0.0005
vt 0.9995 0.1254 0.0005
vt 0.8746 0.1254 0.0005
vt 0.8746 0.0005 0.0005
vt 0.0005 0.1254 0.0005
vt 0.0005 0.0005 0.0005
vt 0.1254 0.0005 0.0005
vt 0.1254 0.1254 0.0005
vt 0.0005 0.9995 0.9995
vt 0.0005 0.8746 0.9995
vt 0.1254 0.8746 0.9995
vt 0.1254 0.9995 0.9995
vt 0.2502 0.8746 0.9995
vt 0.2502 0.9995 0.9995
vt 0.3751 0.8746 0.9995
vt 0.3751 0.9995 0.9995
vt 0.9995 0.8746 0.9995
vt 0.9995 0.9995 0.9995
vt 0.8746 0.9995 0.9995
vt 0.8746 0.8746 0.9995
vt 0.7498 0.9995 0.9995
vt 0.7498 0.8746 0.9995
vt 0.0005 0.7498 0.9995
vt 0.1254 0.7498 0.9995
vt 0.2502 0.7498 0.9995
vt 0.3751 0.7498 0.9995
vt 0.9995 0.7498 0.9995
vt 0.8746 0.7498 0.9995
vt 0.7498 0.7498 0.9995
vt 0.0005 0.6249 0.9995
vt 0.1254 0.6249 0.9995
vt 0.2502 0.6249 0.9995
vt 0.3751 0.6249 0.9995
vt 0.9995 0.6249 0.9995
vt 0.8746 0.6249 0.9995
vt 0.7498 0.6249 0.9995
vt 0.9995 0.0005 0.9995
vt 0.9995 0.1254 0.9995
vt 0.8746 0.1254 0.9995
vt 0.8746 0.0005 0.9995
vt 0.7498 0.1254 0.9995
vt 0.7498 0.0005 0.9995
vt 0.6249 0.1254 0.9995
vt 0.6249 0.0005 0.9995
vt 0.0005 0.1254 0.9995
vt 0.0005 0.0005 0.9995
vt 0.1254 0.0005 0.9995
vt 0.1254 0.1254 0.9995
vt 0.2502 0.0005 0.9995
vt 0.2502 0.1254 0.9995
vt 0.9995 0.2502 0.9995
vt 0.8746 0.2502 0.9995
vt 0.7498 0.2502 0.9995
vt 0.6249 0.2502 0.9995
vt 0.0005 0.2502 0.9995
vt 0.1254 0.2502 0.9995
vt 0.2502 0.2502 0.9995
vt 0.5000 0.9995 0.0005
vt 0.3751 0.9995 0.0005
vt 0.3751 0.9063 0.0005
vt 0.5000 0.9063 0.0005
vt 0.3751 0.9063 0.9995
vt 0.5000 0.9063 0.9995
vt 0.8746 0.9063 0.9995
vt 0.9995 0.9063 0.9995
vt 0.8746 0.8569 0.9995
vt 0.9995 0.8569 0.9995
vt 0.9995 0.7086 0.9995
vt 0.8746 0.7086 0.9995
vt 0.7498 0.9063 0.9995
vt 0.7498 0.8569 0.9995
vt 0.7498 0.7086 0.9995
vt 0.6249 0.9063 0.9995
vt 0.6249 0.8569 0.9995
vt 0.1254 0.7086 0.9995
vt 0.0005 0.7086 0.9995
vt 0.1254 0.7580 0.9995
vt 0.0005 0.7580 0.9995
vt 0.0005 0.9063 0.9995
vt 0.1254 0.9063 0.9995
vt 0.2502 0.7086 0.9995
vt 0.2502 0.7580 0.9995
vt 0.2502 0.9063 0.9995
vt 0.3751 0.8569 0.9995
vt 0.8746 0.9063 0.0005
vt 0.9995 0.9063 0.0005
vt 0.8746 0.8569 0.0005
vt 0.9995 0.8569 0.0005
vt 0.9995 0.7086 0.0005
vt 0.8746 0.7086 0.0005
vt 0.7498 0.9995 0.0005
vt 0.7498 0.9063 0.0005
vt 0.7498 0.8569 0.0005
vt 0.7498 0.7086 0.0005
vt 0.6249 0.9995 0.0005
vt 0.6249 0.9063 0.0005
vt 0.6249 0.8569 0.0005
vt 0.1254 0.7086 0.0005
vt 0.0005 0.7086 0.0005
vt 0.1254 0.7580 0.0005
vt 0.0005 0.7580 0.0005
vt 0.0005 0.9063 0.0005
vt 0.1254 0.9063 0.0005
vt 0.2502 0.7086 0.0005
vt 0.2502 0.7580 0.0005
vt 0.2502 0.9995 0.0005
vt 0.2502 0.9063 0.0005
vt 0.3751 0.8569 0.0005
# 172 texture coords

g Arch
usemtl 01___Default
f 1/1/1 2/2/1 3/3/1 
f 3/3/1 4/4/1 1/1/1 
usemtl 03___Default
f 5/5/1 6/6/1 7/7/1 
f 7/7/1 8/8/1 5/5/1 
usemtl 01___Default
f 6/6/1 9/9/1 10/10/1 
f 10/10/1 7/7/1 6/6/1 
f 9/9/1 11/11/1 12/12/1 
f 12/12/1 10/10/1 9/9/1 
f 11/11/1 1/1/1 4/4/1 
f 4/4/1 12/12/1 11/11/1 
usemtl 03___Default
f 13/13/1 14/14/1 15/15/1 
f 15/15/1 16/16/1 13/13/1 
usemtl 01___Default
f 14/14/1 17/17/1 18/18/1 
f 18/18/1 15/15/1 14/14/1 
f 17/17/1 2/2/1 19/19/1 
f 19/19/1 18/18/1 17/17/1 
usemtl 03___Default
f 20/20/2 21/21/2 22/22/2 
f 22/22/2 23/23/2 20/20/2 
f 21/21/2 24/24/2 25/25/2 
f 25/25/2 22/22/2 21/21/2 
f 26/26/2 27/27/2 28/28/2 
f 28/28/2 29/29/2 26/26/2 
f 27/27/2 30/30/2 31/31/2 
f 31/31/2 28/28/2 27/27/2 
f 32/32/3 33/33/3 34/34/3 
f 34/34/3 35/35/3 32/32/3 
f 33/33/3 36/36/3 37/37/3 
f 37/37/3 34/34/3 33/33/3 
f 38/38/3 39/39/3 40/40/3 
f 40/40/3 41/41/3 38/38/3 
f 39/39/3 42/42/3 43/43/3 
f 43/43/3 40/40/3 39/39/3 
f 44/44/1 45/45/1 46/46/1 
f 46/46/1 47/47/1 44/44/1 
usemtl 01___Default
f 47/47/1 46/46/1 48/48/1 
f 48/48/1 49/49/1 47/47/1 
f 49/49/1 48/48/1 19/19/1 
f 19/19/1 50/50/1 49/49/1 
f 50/50/1 19/19/1 2/2/1 
f 2/2/1 1/1/1 50/50/1 
usemtl 03___Default
f 51/51/1 52/52/1 53/53/1 
f 53/53/1 54/54/1 51/51/1 
usemtl 01___Default
f 54/54/1 53/53/1 55/55/1 
f 55/55/1 56/56/1 54/54/1 
f 56/56/1 55/55/1 4/4/1 
f 4/4/1 3/3/1 56/56/1 
usemtl 03___Default
f 26/32/4 57/33/4 58/34/4 
f 58/34/4 59/35/4 26/32/4 
f 32/38/4 60/39/4 61/40/4 
f 61/40/4 62/41/4 32/38/4 
f 38/20/5 63/21/5 64/22/5 
f 64/22/5 65/23/5 38/20/5 
f 20/26/5 66/27/5 67/28/5 
f 67/28/5 68/29/5 20/26/5 
f 69/57/6 70/58/6 71/59/6 
f 71/59/6 72/60/6 69/57/6 
f 73/61/6 74/62/6 75/63/6 
f 75/63/6 76/64/6 73/61/6 
f 77/65/6 78/66/6 79/67/6 
f 79/67/6 80/68/6 77/65/6 
f 81/69/6 82/70/6 83/71/6 
f 83/71/6 84/72/6 81/69/6 
f 85/73/1 86/74/1 87/75/1 
f 87/75/1 88/76/1 85/73/1 
f 88/76/1 87/75/1 89/77/1 
f 89/77/1 90/78/1 88/76/1 
f 90/78/1 89/77/1 91/79/1 
f 91/79/1 92/80/1 90/78/1 
f 92/80/1 91/79/1 6/6/1 
f 6/6/1 5/5/1 92/80/1 
f 93/81/1 94/82/1 95/83/1 
f 95/83/1 96/84/1 93/81/1 
f 96/84/1 95/83/1 97/85/1 
f 97/85/1 98/86/1 96/84/1 
f 98/86/1 97/85/1 8/8/1 
f 8/8/1 7/7/1 98/86/1 
f 86/74/1 99/87/1 100/88/1 
f 100/88/1 87/75/1 86/74/1 
f 87/75/1 100/88/1 101/89/1 
f 101/89/1 89/77/1 87/75/1 
f 89/77/1 101/89/1 102/90/1 
f 102/90/1 91/79/1 89/77/1 
usemtl 01___Default
f 91/79/1 102/90/1 9/9/1 
f 9/9/1 6/6/1 91/79/1 
usemtl 03___Default
f 103/91/1 93/81/1 96/84/1 
f 96/84/1 104/92/1 103/91/1 
f 104/92/1 96/84/1 98/86/1 
f 98/86/1 105/93/1 104/92/1 
f 105/93/1 98/86/1 7/7/1 
f 7/7/1 10/10/1 105/93/1 
f 99/87/1 106/94/1 107/95/1 
f 107/95/1 100/88/1 99/87/1 
f 100/88/1 107/95/1 108/96/1 
f 108/96/1 101/89/1 100/88/1 
usemtl 01___Default
f 101/89/1 108/96/1 109/97/1 
f 109/97/1 102/90/1 101/89/1 
f 102/90/1 109/97/1 11/11/1 
f 11/11/1 9/9/1 102/90/1 
usemtl 03___Default
f 110/98/1 103/91/1 104/92/1 
f 104/92/1 111/99/1 110/98/1 
f 111/99/1 104/92/1 105/93/1 
f 105/93/1 112/100/1 111/99/1 
usemtl 01___Default
f 112/100/1 105/93/1 10/10/1 
f 10/10/1 12/12/1 112/100/1 
usemtl 03___Default
f 106/94/1 44/44/1 47/47/1 
f 47/47/1 107/95/1 106/94/1 
usemtl 01___Default
f 107/95/1 47/47/1 49/49/1 
f 49/49/1 108/96/1 107/95/1 
f 108/96/1 49/49/1 50/50/1 
f 50/50/1 109/97/1 108/96/1 
f 109/97/1 50/50/1 1/1/1 
f 1/1/1 11/11/1 109/97/1 
usemtl 03___Default
f 52/52/1 110/98/1 111/99/1 
f 111/99/1 53/53/1 52/52/1 
usemtl 01___Default
f 53/53/1 111/99/1 112/100/1 
f 112/100/1 55/55/1 53/53/1 
f 55/55/1 112/100/1 12/12/1 
f 12/12/1 4/4/1 55/55/1 
usemtl 03___Default
f 113/101/1 114/102/1 115/103/1 
f 115/103/1 116/104/1 113/101/1 
f 116/104/1 115/103/1 117/105/1 
f 117/105/1 118/106/1 116/104/1 
f 118/106/1 117/105/1 119/107/1 
f 119/107/1 120/108/1 118/106/1 
f 120/108/1 119/107/1 14/14/1 
f 14/14/1 13/13/1 120/108/1 
f 121/109/1 122/110/1 123/111/1 
f 123/111/1 124/112/1 121/109/1 
f 124/112/1 123/111/1 125/113/1 
f 125/113/1 126/114/1 124/112/1 
f 126/114/1 125/113/1 16/16/1 
f 16/16/1 15/15/1 126/114/1 
f 114/102/1 127/115/1 128/116/1 
f 128/116/1 115/103/1 114/102/1 
f 115/103/1 128/116/1 129/117/1 
f 129/117/1 117/105/1 115/103/1 
f 117/105/1 129/117/1 130/118/1 
f 130/118/1 119/107/1 117/105/1 
usemtl 01___Default
f 119/107/1 130/118/1 17/17/1 
f 17/17/1 14/14/1 119/107/1 
usemtl 03___Default
f 131/119/1 121/109/1 124/112/1 
f 124/112/1 132/120/1 131/119/1 
f 132/120/1 124/112/1 126/114/1 
f 126/114/1 133/121/1 132/120/1 
f 133/121/1 126/114/1 15/15/1 
f 15/15/1 18/18/1 133/121/1 
f 127/115/1 51/51/1 54/54/1 
f 54/54/1 128/116/1 127/115/1 
f 128/116/1 54/54/1 56/56/1 
f 56/56/1 129/117/1 128/116/1 
usemtl 01___Default
f 129/117/1 56/56/1 3/3/1 
f 3/3/1 130/118/1 129/117/1 
f 130/118/1 3/3/1 2/2/1 
f 2/2/1 17/17/1 130/118/1 
usemtl 03___Default
f 45/45/1 131/119/1 132/120/1 
f 132/120/1 46/46/1 45/45/1 
f 46/46/1 132/120/1 133/121/1 
f 133/121/1 48/48/1 46/46/1 
usemtl 01___Default
f 48/48/1 133/121/1 18/18/1 
f 18/18/1 19/19/1 48/48/1 
usemtl 03___Default
f 13/122/4 16/123/4 134/124/4 
f 134/124/4 135/125/4 13/122/4 
f 52/5/2 51/80/2 136/126/2 
f 136/126/2 137/127/2 52/5/2 
f 5/5/5 8/80/5 138/126/5 
f 138/126/5 139/127/5 5/5/5 
f 44/122/3 106/123/3 140/124/3 
f 140/124/3 141/125/3 44/122/3 
f 94/82/2 93/83/2 142/128/2 
f 142/128/2 143/129/2 94/82/2 
f 143/129/2 142/128/2 144/130/2 
f 144/130/2 68/131/2 143/129/2 
f 68/131/2 144/130/2 21/21/2 
f 21/21/2 20/20/2 68/131/2 
f 70/104/2 69/101/2 145/132/2 
f 145/132/2 146/133/2 70/104/2 
f 146/133/2 145/132/2 23/23/2 
f 23/23/2 22/22/2 146/133/2 
f 93/83/2 103/85/2 147/134/2 
f 147/134/2 142/128/2 93/83/2 
f 142/128/2 147/134/2 148/135/2 
f 148/135/2 144/130/2 142/128/2 
f 144/130/2 148/135/2 24/24/2 
f 24/24/2 21/21/2 144/130/2 
f 149/136/2 146/133/2 22/22/2 
f 22/22/2 25/25/2 149/136/2 
f 103/85/2 110/8/2 150/137/2 
f 150/137/2 147/134/2 103/85/2 
f 147/134/2 150/137/2 151/138/2 
f 151/138/2 148/135/2 147/134/2 
f 110/8/2 52/5/2 137/127/2 
f 137/127/2 150/137/2 110/8/2 
f 82/110/2 81/111/2 152/139/2 
f 152/139/2 153/140/2 82/110/2 
f 153/140/2 152/139/2 154/141/2 
f 154/141/2 59/142/2 153/140/2 
f 59/142/2 154/141/2 27/27/2 
f 27/27/2 26/26/2 59/142/2 
f 114/76/2 113/73/2 155/143/2 
f 155/143/2 156/144/2 114/76/2 
f 156/144/2 155/143/2 29/29/2 
f 29/29/2 28/28/2 156/144/2 
f 152/139/2 157/145/2 158/146/2 
f 158/146/2 154/141/2 152/139/2 
f 154/141/2 158/146/2 30/30/2 
f 30/30/2 27/27/2 154/141/2 
f 127/78/2 114/76/2 156/144/2 
f 156/144/2 159/147/2 127/78/2 
f 159/147/2 156/144/2 28/28/2 
f 28/28/2 31/31/2 159/147/2 
f 51/80/2 127/78/2 159/147/2 
f 159/147/2 136/126/2 51/80/2 
f 136/126/2 159/147/2 31/31/2 
f 31/31/2 160/148/2 136/126/2 
f 122/62/3 121/63/3 161/149/3 
f 161/149/3 162/150/3 122/62/3 
f 162/150/3 161/149/3 163/151/3 
f 163/151/3 62/152/3 162/150/3 
f 62/152/3 163/151/3 33/33/3 
f 33/33/3 32/32/3 62/152/3 
f 78/68/3 77/65/3 164/153/3 
f 164/153/3 165/154/3 78/68/3 
f 165/154/3 164/153/3 35/35/3 
f 35/35/3 34/34/3 165/154/3 
f 121/63/3 131/155/3 166/156/3 
f 166/156/3 161/149/3 121/63/3 
f 161/149/3 166/156/3 167/157/3 
f 167/157/3 163/151/3 161/149/3 
f 163/151/3 167/157/3 36/36/3 
f 36/36/3 33/33/3 163/151/3 
f 168/158/3 165/154/3 34/34/3 
f 34/34/3 37/37/3 168/158/3 
f 131/155/3 45/159/3 169/160/3 
f 169/160/3 166/156/3 131/155/3 
f 166/156/3 169/160/3 170/161/3 
f 170/161/3 167/157/3 166/156/3 
f 45/159/3 44/122/3 141/125/3 
f 141/125/3 169/160/3 45/159/3 
f 74/70/3 73/71/3 171/162/3 
f 171/162/3 172/163/3 74/70/3 
f 172/163/3 171/162/3 173/164/3 
f 173/164/3 65/165/3 172/163/3 
f 65/165/3 173/164/3 39/39/3 
f 39/39/3 38/38/3 65/165/3 
f 86/60/3 85/57/3 174/166/3 
f 174/166/3 175/167/3 86/60/3 
f 175/167/3 174/166/3 41/41/3 
f 41/41/3 40/40/3 175/167/3 
f 171/162/3 176/168/3 177/169/3 
f 177/169/3 173/164/3 171/162/3 
f 173/164/3 177/169/3 42/42/3 
f 42/42/3 39/39/3 173/164/3 
f 99/170/3 86/60/3 175/167/3 
f 175/167/3 178/171/3 99/170/3 
f 178/171/3 175/167/3 40/40/3 
f 40/40/3 43/43/3 178/171/3 
f 106/123/3 99/170/3 178/171/3 
f 178/171/3 140/124/3 106/123/3 
f 140/124/3 178/171/3 43/43/3 
f 43/43/3 179/172/3 140/124/3 
f 113/62/4 116/63/4 180/149/4 
f 180/149/4 155/150/4 113/62/4 
f 155/150/4 180/149/4 181/151/4 
f 181/151/4 29/152/4 155/150/4 
f 29/152/4 181/151/4 57/33/4 
f 57/33/4 26/32/4 29/152/4 
f 83/68/4 82/65/4 153/153/4 
f 153/153/4 182/154/4 83/68/4 
f 182/154/4 153/153/4 59/35/4 
f 59/35/4 58/34/4 182/154/4 
f 116/63/4 118/155/4 183/156/4 
f 183/156/4 180/149/4 116/63/4 
f 118/155/4 120/159/4 184/160/4 
f 184/160/4 183/156/4 118/155/4 
f 120/159/4 13/122/4 135/125/4 
f 135/125/4 184/160/4 120/159/4 
f 77/70/4 80/71/4 185/162/4 
f 185/162/4 164/163/4 77/70/4 
f 164/163/4 185/162/4 186/164/4 
f 186/164/4 35/165/4 164/163/4 
f 35/165/4 186/164/4 60/39/4 
f 60/39/4 32/38/4 35/165/4 
f 123/60/4 122/57/4 162/166/4 
f 162/166/4 187/167/4 123/60/4 
f 187/167/4 162/166/4 62/41/4 
f 62/41/4 61/40/4 187/167/4 
f 125/170/4 123/60/4 187/167/4 
f 187/167/4 188/171/4 125/170/4 
f 16/123/4 125/170/4 188/171/4 
f 188/171/4 134/124/4 16/123/4 
f 85/82/5 88/83/5 189/128/5 
f 189/128/5 174/129/5 85/82/5 
f 174/129/5 189/128/5 190/130/5 
f 190/130/5 41/131/5 174/129/5 
f 41/131/5 190/130/5 63/21/5 
f 63/21/5 38/20/5 41/131/5 
f 75/104/5 74/101/5 172/132/5 
f 172/132/5 191/133/5 75/104/5 
f 191/133/5 172/132/5 65/23/5 
f 65/23/5 64/22/5 191/133/5 
f 88/83/5 90/85/5 192/134/5 
f 192/134/5 189/128/5 88/83/5 
f 90/85/5 92/8/5 193/137/5 
f 193/137/5 192/134/5 90/85/5 
f 92/8/5 5/5/5 139/127/5 
f 139/127/5 193/137/5 92/8/5 
f 69/110/5 72/111/5 194/139/5 
f 194/139/5 145/140/5 69/110/5 
f 145/140/5 194/139/5 195/141/5 
f 195/141/5 23/142/5 145/140/5 
f 23/142/5 195/141/5 66/27/5 
f 66/27/5 20/26/5 23/142/5 
f 95/76/5 94/73/5 143/143/5 
f 143/143/5 196/144/5 95/76/5 
f 196/144/5 143/143/5 68/29/5 
f 68/29/5 67/28/5 196/144/5 
f 97/78/5 95/76/5 196/144/5 
f 196/144/5 197/147/5 97/78/5 
f 8/80/5 97/78/5 197/147/5 
f 197/147/5 138/126/5 8/80/5 
f 73/61/4 76/64/4 198/64/4 
f 198/64/4 199/61/4 73/61/4 
f 81/69/5 84/72/5 200/72/5 
f 200/72/5 201/69/5 81/69/5 
f 71/59/4 70/58/4 202/58/4 
f 202/58/4 203/59/4 71/59/4 
f 79/67/5 78/66/5 204/66/5 
f 204/66/5 205/67/5 79/67/5 
f 72/60/3 71/59/3 203/59/3 
f 203/59/3 206/60/3 72/60/3 
f 76/64/2 75/63/2 207/63/2 
f 207/63/2 198/64/2 76/64/2 
f 80/68/2 79/67/2 205/67/2 
f 205/67/2 208/68/2 80/68/2 
f 84/72/3 83/71/3 209/71/3 
f 209/71/3 200/72/3 84/72/3 
f 140/152/6 150/112/6 137/114/6 
f 137/114/6 141/140/6 140/152/6 
f 141/140/6 137/114/6 136/117/6 
f 136/117/6 169/150/6 141/140/6 
f 170/152/6 160/116/6 31/121/6 
f 31/121/6 167/35/6 170/152/6 
f 168/56/6 157/118/6 152/103/6 
f 152/103/6 165/46/6 168/56/6 
f 43/38/7 148/50/7 151/47/7 
f 151/47/7 179/32/7 43/38/7 
f 171/166/7 146/11/7 149/55/7 
f 149/55/7 176/150/7 171/166/7 
f 168/56/5 167/35/5 31/121/5 
f 31/121/5 157/118/5 168/56/5 
f 170/152/5 169/150/5 136/117/5 
f 136/117/5 160/116/5 170/152/5 
f 151/47/4 150/112/4 140/152/4 
f 140/152/4 179/32/4 151/47/4 
f 149/55/4 148/50/4 43/38/4 
f 43/38/4 176/150/4 149/55/4 
f 165/46/4 152/103/4 210/103/4 
f 210/103/4 211/46/4 165/46/4 
f 211/46/6 210/103/6 212/103/6 
f 212/103/6 213/46/6 211/46/6 
f 146/11/5 171/166/5 214/166/5 
f 214/166/5 215/11/5 146/11/5 
f 215/11/7 214/166/7 216/166/7 
f 216/166/7 217/11/7 215/11/7 
# 364 faces

